<svg width="550" height="260" viewBox="0 0 550 260" fill="none" xmlns="http://www.w3.org/2000/svg">
<path d="M41.8769 115.08C37.0769 115.08 32.7169 113.96 28.7969 111.72C24.9569 109.4 21.9169 106.32 19.6769 102.48V113.88H8.03691V26.2799H21.2369V62.9999C23.7169 58.9999 26.7969 55.8399 30.4769 53.5199C34.2369 51.1999 38.6369 50.0399 43.6769 50.0399C47.8369 50.0399 51.6369 50.9199 55.0769 52.6799C58.5169 54.4399 61.4369 56.8399 63.8369 59.8799C66.3169 62.9199 68.1969 66.3999 69.4769 70.3199C70.8369 74.2399 71.5169 78.3999 71.5169 82.7999C71.5169 87.1999 70.7569 91.3599 69.2369 95.2799C67.7969 99.1999 65.7169 102.64 62.9969 105.6C60.2769 108.56 57.1169 110.88 53.5169 112.56C49.9969 114.24 46.1169 115.08 41.8769 115.08ZM38.3969 103.8C41.2769 103.8 43.9169 103.24 46.3169 102.12C48.7169 100.92 50.7969 99.3599 52.5569 97.4399C54.3169 95.5199 55.6369 93.2799 56.5169 90.7199C57.4769 88.1599 57.9569 85.5199 57.9569 82.7999C57.9569 79.0399 57.1569 75.5199 55.5569 72.2399C54.0369 68.9599 51.8769 66.3199 49.0769 64.3199C46.2769 62.3199 43.0369 61.3199 39.3569 61.3199C36.7169 61.3199 34.2369 61.9599 31.9169 63.2399C29.5969 64.4399 27.5169 66.0799 25.6769 68.1599C23.9169 70.1599 22.4369 72.3999 21.2369 74.8799V91.4399C21.7169 93.2799 22.5569 94.9599 23.7569 96.4799C24.9569 97.9199 26.3569 99.1999 27.9569 100.32C29.5569 101.36 31.2769 102.2 33.1169 102.84C34.9569 103.48 36.7169 103.8 38.3969 103.8ZM504.801 62.5199C499.681 62.5999 495.121 63.7599 491.121 65.9999C487.201 68.2399 484.401 71.3999 482.721 75.4799V113.88H469.521V51.1199H481.761V65.1599C483.921 60.8399 486.761 57.3999 490.281 54.8399C493.801 52.1999 497.521 50.7599 501.441 50.5199C502.241 50.5199 502.881 50.5199 503.361 50.5199C503.921 50.5199 504.401 50.5599 504.801 50.6399V62.5199Z" fill="#E7E1D9"/>
<path d="M118.668 62.5199C113.548 62.5999 108.988 63.7599 104.988 65.9999C101.068 68.2399 98.2685 71.3999 96.5885 75.4799V113.88H83.3885V51.1199H95.6285V65.1599C97.7885 60.8399 100.628 57.3999 104.148 54.8399C107.668 52.1999 111.388 50.7599 115.308 50.5199C116.108 50.5199 116.748 50.5199 117.228 50.5199C117.788 50.5199 118.268 50.5599 118.668 50.6399V62.5199ZM332.931 128.64C334.131 128.8 335.291 128.96 336.411 129.12C337.611 129.36 338.571 129.48 339.291 129.48C340.651 129.48 341.811 129.04 342.771 128.16C343.811 127.36 344.851 125.84 345.891 123.6C346.931 121.36 348.211 118.12 349.731 113.88L323.931 51.1199H337.731L356.931 100.44L373.971 51.1199H386.691L358.251 128.4C357.371 130.72 356.091 132.84 354.411 134.76C352.731 136.76 350.651 138.32 348.171 139.44C345.691 140.56 342.771 141.12 339.411 141.12C338.451 141.12 337.451 141.04 336.411 140.88C335.371 140.72 334.211 140.48 332.931 140.16V128.64Z" fill="#EDCFCC"/>
<path d="M128.271 113.88V51.1199H141.471V113.88H128.271ZM128.271 40.7999V26.2799H141.471V40.7999H128.271ZM395.796 89.5199V51.1199H408.996V86.8799C408.996 92.4799 409.996 96.7199 411.996 99.5999C414.076 102.4 417.076 103.8 420.996 103.8C423.476 103.8 425.876 103.28 428.196 102.24C430.596 101.2 432.756 99.6799 434.676 97.6799C436.676 95.5999 438.276 93.1199 439.476 90.2399V51.1199H452.676V98.9999C452.676 100.52 452.956 101.6 453.516 102.24C454.076 102.88 454.996 103.24 456.276 103.32V113.88C454.916 114.12 453.796 114.28 452.916 114.36C452.036 114.44 451.196 114.48 450.396 114.48C447.996 114.48 445.996 113.84 444.396 112.56C442.796 111.2 441.876 109.48 441.636 107.4L441.396 101.16C438.596 105.72 434.956 109.2 430.476 111.6C425.996 113.92 421.076 115.08 415.716 115.08C409.156 115.08 404.196 112.92 400.836 108.6C397.476 104.28 395.796 97.9199 395.796 89.5199Z" fill="#A6C3D2"/>
<path d="M213.614 113.88H200.414V78.7199C200.414 72.8799 199.454 68.5999 197.534 65.8799C195.694 63.1599 192.934 61.7999 189.254 61.7999C186.694 61.7999 184.134 62.4399 181.574 63.7199C179.094 64.9999 176.854 66.7599 174.854 68.9999C172.854 71.1599 171.414 73.6799 170.534 76.5599V113.88H157.334V51.1199H169.334V63.7199C170.934 60.9199 173.014 58.5199 175.574 56.5199C178.214 54.4399 181.174 52.8399 184.454 51.7199C187.734 50.5999 191.214 50.0399 194.894 50.0399C198.654 50.0399 201.734 50.7199 204.134 52.0799C206.614 53.4399 208.534 55.3199 209.894 57.7199C211.334 60.0399 212.294 62.7599 212.774 65.8799C213.334 68.9199 213.614 72.1599 213.614 75.5999V113.88Z" fill="#CADBE4"/>
<path d="M253.775 114.48C249.535 114.48 245.655 113.64 242.135 111.96C238.615 110.2 235.575 107.84 233.015 104.88C230.535 101.92 228.575 98.5199 227.135 94.6799C225.775 90.8399 225.095 86.7999 225.095 82.5599C225.095 78.0799 225.815 73.8799 227.255 69.9599C228.695 66.0399 230.695 62.5999 233.255 59.6399C235.895 56.5999 238.975 54.2399 242.495 52.5599C246.015 50.8799 249.935 50.0399 254.255 50.0399C259.295 50.0399 263.695 51.2399 267.455 53.6399C271.295 56.0399 274.455 59.1599 276.935 62.9999V51.1199H288.575V112.08C288.575 118.16 287.095 123.32 284.135 127.56C281.255 131.8 277.295 135.04 272.255 137.28C267.215 139.52 261.535 140.64 255.215 140.64C248.255 140.64 242.495 139.44 237.935 137.04C233.375 134.64 229.495 131.36 226.295 127.2L233.735 120.24C236.135 123.6 239.215 126.16 242.975 127.92C246.815 129.68 250.895 130.56 255.215 130.56C258.815 130.56 262.135 129.88 265.175 128.52C268.295 127.24 270.775 125.2 272.615 122.4C274.455 119.68 275.375 116.24 275.375 112.08V102.48C273.135 106.24 270.055 109.2 266.135 111.36C262.215 113.44 258.095 114.48 253.775 114.48ZM258.095 103.8C260.095 103.8 262.015 103.48 263.855 102.84C265.695 102.12 267.375 101.2 268.895 100.08C270.495 98.8799 271.855 97.5599 272.975 96.1199C274.095 94.5999 274.895 92.9999 275.375 91.3199V74.8799C274.335 72.1599 272.855 69.7999 270.935 67.7999C269.015 65.7199 266.855 64.1199 264.455 62.9999C262.055 61.8799 259.615 61.3199 257.135 61.3199C254.255 61.3199 251.655 61.9599 249.335 63.2399C247.095 64.4399 245.175 66.0799 243.575 68.1599C241.975 70.1599 240.735 72.4399 239.855 74.9999C238.975 77.5599 238.535 80.1999 238.535 82.9199C238.535 85.7999 239.015 88.4799 239.975 90.9599C241.015 93.4399 242.415 95.6799 244.175 97.6799C245.935 99.5999 248.015 101.12 250.415 102.24C252.815 103.28 255.375 103.8 258.095 103.8Z" fill="#E9E1D7"/>
<path d="M81.8816 233.08C77.0816 233.08 72.7216 231.96 68.8016 229.72C64.9616 227.4 61.9216 224.32 59.6816 220.48V231.88H48.0416V144.28H61.2416V181C63.7216 177 66.8016 173.84 70.4816 171.52C74.2416 169.2 78.6416 168.04 83.6816 168.04C87.8416 168.04 91.6416 168.92 95.0816 170.68C98.5216 172.44 101.442 174.84 103.842 177.88C106.322 180.92 108.202 184.4 109.482 188.32C110.842 192.24 111.522 196.4 111.522 200.8C111.522 205.2 110.762 209.36 109.242 213.28C107.802 217.2 105.722 220.64 103.002 223.6C100.282 226.56 97.1216 228.88 93.5216 230.56C90.0016 232.24 86.1216 233.08 81.8816 233.08ZM78.4016 221.8C81.2816 221.8 83.9216 221.24 86.3216 220.12C88.7216 218.92 90.8016 217.36 92.5616 215.44C94.3216 213.52 95.6416 211.28 96.5216 208.72C97.4816 206.16 97.9616 203.52 97.9616 200.8C97.9616 197.04 97.1616 193.52 95.5616 190.24C94.0416 186.96 91.8816 184.32 89.0816 182.32C86.2816 180.32 83.0416 179.32 79.3616 179.32C76.7216 179.32 74.2416 179.96 71.9216 181.24C69.6016 182.44 67.5216 184.08 65.6816 186.16C63.9216 188.16 62.4416 190.4 61.2416 192.88V209.44C61.7216 211.28 62.5616 212.96 63.7616 214.48C64.9616 215.92 66.3616 217.2 67.9616 218.32C69.5616 219.36 71.2816 220.2 73.1216 220.84C74.9616 221.48 76.7216 221.8 78.4016 221.8ZM337.505 213.52C337.505 209.52 338.625 206.04 340.865 203.08C343.185 200.04 346.345 197.72 350.345 196.12C354.345 194.44 358.985 193.6 364.265 193.6C367.065 193.6 369.905 193.8 372.785 194.2C375.745 194.6 378.345 195.24 380.585 196.12V192.16C380.585 187.76 379.265 184.32 376.625 181.84C373.985 179.36 370.185 178.12 365.225 178.12C361.705 178.12 358.385 178.76 355.265 180.04C352.145 181.24 348.825 182.96 345.305 185.2L340.865 176.32C345.025 173.52 349.185 171.44 353.345 170.08C357.585 168.72 362.025 168.04 366.665 168.04C375.065 168.04 381.665 170.28 386.465 174.76C391.345 179.16 393.785 185.44 393.785 193.6V217C393.785 218.52 394.025 219.6 394.505 220.24C395.065 220.88 395.985 221.24 397.265 221.32V231.88C396.065 232.12 394.985 232.28 394.025 232.36C393.065 232.44 392.265 232.48 391.625 232.48C388.825 232.48 386.705 231.8 385.265 230.44C383.825 229.08 382.985 227.48 382.745 225.64L382.385 222.04C379.665 225.56 376.185 228.28 371.945 230.2C367.705 232.12 363.425 233.08 359.105 233.08C354.945 233.08 351.225 232.24 347.945 230.56C344.665 228.8 342.105 226.44 340.265 223.48C338.425 220.52 337.505 217.2 337.505 213.52ZM377.465 217.36C378.425 216.32 379.185 215.28 379.745 214.24C380.305 213.2 380.585 212.28 380.585 211.48V204.28C378.345 203.4 375.985 202.76 373.505 202.36C371.025 201.88 368.585 201.64 366.185 201.64C361.385 201.64 357.465 202.6 354.425 204.52C351.465 206.44 349.985 209.08 349.985 212.44C349.985 214.28 350.465 216.04 351.425 217.72C352.465 219.4 353.905 220.76 355.745 221.8C357.665 222.84 360.025 223.36 362.825 223.36C365.705 223.36 368.465 222.8 371.105 221.68C373.745 220.56 375.865 219.12 377.465 217.36Z" fill="#EDCFCC"/>
<path d="M118.833 213.52C118.833 209.52 119.953 206.04 122.193 203.08C124.513 200.04 127.673 197.72 131.673 196.12C135.673 194.44 140.313 193.6 145.593 193.6C148.393 193.6 151.233 193.8 154.113 194.2C157.073 194.6 159.673 195.24 161.913 196.12V192.16C161.913 187.76 160.593 184.32 157.953 181.84C155.313 179.36 151.513 178.12 146.553 178.12C143.033 178.12 139.713 178.76 136.593 180.04C133.473 181.24 130.153 182.96 126.633 185.2L122.193 176.32C126.353 173.52 130.513 171.44 134.673 170.08C138.913 168.72 143.353 168.04 147.993 168.04C156.393 168.04 162.993 170.28 167.793 174.76C172.673 179.16 175.113 185.44 175.113 193.6V217C175.113 218.52 175.353 219.6 175.833 220.24C176.393 220.88 177.313 221.24 178.593 221.32V231.88C177.393 232.12 176.313 232.28 175.353 232.36C174.393 232.44 173.593 232.48 172.953 232.48C170.153 232.48 168.033 231.8 166.593 230.44C165.153 229.08 164.313 227.48 164.073 225.64L163.713 222.04C160.993 225.56 157.513 228.28 153.273 230.2C149.033 232.12 144.753 233.08 140.433 233.08C136.273 233.08 132.553 232.24 129.273 230.56C125.993 228.8 123.433 226.44 121.593 223.48C119.753 220.52 118.833 217.2 118.833 213.52ZM158.793 217.36C159.753 216.32 160.513 215.28 161.073 214.24C161.633 213.2 161.913 212.28 161.913 211.48V204.28C159.673 203.4 157.313 202.76 154.833 202.36C152.353 201.88 149.913 201.64 147.513 201.64C142.713 201.64 138.793 202.6 135.753 204.52C132.793 206.44 131.313 209.08 131.313 212.44C131.313 214.28 131.793 216.04 132.753 217.72C133.793 219.4 135.233 220.76 137.073 221.8C138.993 222.84 141.353 223.36 144.153 223.36C147.033 223.36 149.793 222.8 152.433 221.68C155.073 220.56 157.193 219.12 158.793 217.36Z" fill="#9FC4D4"/>
<path d="M215.967 232.48C211.727 232.48 207.847 231.64 204.327 229.96C200.807 228.2 197.767 225.84 195.207 222.88C192.727 219.92 190.767 216.52 189.327 212.68C187.967 208.84 187.287 204.8 187.287 200.56C187.287 196.08 188.007 191.88 189.447 187.96C190.887 184.04 192.887 180.6 195.447 177.64C198.087 174.6 201.167 172.24 204.687 170.56C208.207 168.88 212.127 168.04 216.447 168.04C221.487 168.04 225.887 169.24 229.647 171.64C233.487 174.04 236.647 177.16 239.127 181V169.12H250.767V230.08C250.767 236.16 249.287 241.32 246.327 245.56C243.447 249.8 239.487 253.04 234.447 255.28C229.407 257.52 223.727 258.64 217.407 258.64C210.447 258.64 204.687 257.44 200.127 255.04C195.567 252.64 191.687 249.36 188.487 245.2L195.927 238.24C198.327 241.6 201.407 244.16 205.167 245.92C209.007 247.68 213.087 248.56 217.407 248.56C221.007 248.56 224.327 247.88 227.367 246.52C230.487 245.24 232.967 243.2 234.807 240.4C236.647 237.68 237.567 234.24 237.567 230.08V220.48C235.327 224.24 232.247 227.2 228.327 229.36C224.407 231.44 220.287 232.48 215.967 232.48ZM220.287 221.8C222.287 221.8 224.207 221.48 226.047 220.84C227.887 220.12 229.567 219.2 231.087 218.08C232.687 216.88 234.047 215.56 235.167 214.12C236.287 212.6 237.087 211 237.567 209.32V192.88C236.527 190.16 235.047 187.8 233.127 185.8C231.207 183.72 229.047 182.12 226.647 181C224.247 179.88 221.807 179.32 219.327 179.32C216.447 179.32 213.847 179.96 211.527 181.24C209.287 182.44 207.367 184.08 205.767 186.16C204.167 188.16 202.927 190.44 202.047 193C201.167 195.56 200.727 198.2 200.727 200.92C200.727 203.8 201.207 206.48 202.167 208.96C203.207 211.44 204.607 213.68 206.367 215.68C208.127 217.6 210.207 219.12 212.607 220.24C215.007 221.28 217.567 221.8 220.287 221.8Z" fill="#CADBE4"/>
<path d="M291.436 232.48C287.196 232.48 283.316 231.64 279.796 229.96C276.276 228.2 273.236 225.84 270.676 222.88C268.196 219.92 266.236 216.52 264.796 212.68C263.436 208.84 262.756 204.8 262.756 200.56C262.756 196.08 263.476 191.88 264.916 187.96C266.356 184.04 268.356 180.6 270.916 177.64C273.556 174.6 276.636 172.24 280.156 170.56C283.676 168.88 287.596 168.04 291.916 168.04C296.956 168.04 301.356 169.24 305.116 171.64C308.956 174.04 312.116 177.16 314.596 181V169.12H326.236V230.08C326.236 236.16 324.756 241.32 321.796 245.56C318.916 249.8 314.956 253.04 309.916 255.28C304.876 257.52 299.196 258.64 292.876 258.64C285.916 258.64 280.156 257.44 275.596 255.04C271.036 252.64 267.156 249.36 263.956 245.2L271.396 238.24C273.796 241.6 276.876 244.16 280.636 245.92C284.476 247.68 288.556 248.56 292.876 248.56C296.476 248.56 299.796 247.88 302.836 246.52C305.956 245.24 308.436 243.2 310.276 240.4C312.116 237.68 313.036 234.24 313.036 230.08V220.48C310.796 224.24 307.716 227.2 303.796 229.36C299.876 231.44 295.756 232.48 291.436 232.48ZM295.756 221.8C297.756 221.8 299.676 221.48 301.516 220.84C303.356 220.12 305.036 219.2 306.556 218.08C308.156 216.88 309.516 215.56 310.636 214.12C311.756 212.6 312.556 211 313.036 209.32V192.88C311.996 190.16 310.516 187.8 308.596 185.8C306.676 183.72 304.516 182.12 302.116 181C299.716 179.88 297.276 179.32 294.796 179.32C291.916 179.32 289.316 179.96 286.996 181.24C284.756 182.44 282.836 184.08 281.236 186.16C279.636 188.16 278.396 190.44 277.516 193C276.636 195.56 276.196 198.2 276.196 200.92C276.196 203.8 276.676 206.48 277.636 208.96C278.676 211.44 280.076 213.68 281.836 215.68C283.596 217.6 285.676 219.12 288.076 220.24C290.476 221.28 293.036 221.8 295.756 221.8Z" fill="#E9E1D7"/>
<path d="M434.639 232.48C430.399 232.48 426.519 231.64 422.999 229.96C419.479 228.2 416.439 225.84 413.879 222.88C411.399 219.92 409.439 216.52 407.999 212.68C406.639 208.84 405.959 204.8 405.959 200.56C405.959 196.08 406.679 191.88 408.119 187.96C409.559 184.04 411.559 180.6 414.119 177.64C416.759 174.6 419.839 172.24 423.359 170.56C426.879 168.88 430.799 168.04 435.119 168.04C440.159 168.04 444.559 169.24 448.319 171.64C452.159 174.04 455.319 177.16 457.799 181V169.12H469.439V230.08C469.439 236.16 467.959 241.32 464.999 245.56C462.119 249.8 458.159 253.04 453.119 255.28C448.079 257.52 442.399 258.64 436.079 258.64C429.119 258.64 423.359 257.44 418.799 255.04C414.239 252.64 410.359 249.36 407.159 245.2L414.599 238.24C416.999 241.6 420.079 244.16 423.839 245.92C427.679 247.68 431.759 248.56 436.079 248.56C439.679 248.56 442.999 247.88 446.039 246.52C449.159 245.24 451.639 243.2 453.479 240.4C455.319 237.68 456.239 234.24 456.239 230.08V220.48C453.999 224.24 450.919 227.2 446.999 229.36C443.079 231.44 438.959 232.48 434.639 232.48ZM438.959 221.8C440.959 221.8 442.879 221.48 444.719 220.84C446.559 220.12 448.239 219.2 449.759 218.08C451.359 216.88 452.719 215.56 453.839 214.12C454.959 212.6 455.759 211 456.239 209.32V192.88C455.199 190.16 453.719 187.8 451.799 185.8C449.879 183.72 447.719 182.12 445.319 181C442.919 179.88 440.479 179.32 437.999 179.32C435.119 179.32 432.519 179.96 430.199 181.24C427.959 182.44 426.039 184.08 424.439 186.16C422.839 188.16 421.599 190.44 420.719 193C419.839 195.56 419.399 198.2 419.399 200.92C419.399 203.8 419.879 206.48 420.839 208.96C421.879 211.44 423.279 213.68 425.039 215.68C426.799 217.6 428.879 219.12 431.279 220.24C433.679 221.28 436.239 221.8 438.959 221.8Z" fill="#A6C3D2"/>
<path d="M513.708 233.08C508.828 233.08 504.388 232.24 500.388 230.56C496.468 228.8 493.068 226.44 490.188 223.48C487.308 220.44 485.068 217 483.468 213.16C481.948 209.24 481.188 205.08 481.188 200.68C481.188 194.76 482.548 189.36 485.268 184.48C487.988 179.52 491.788 175.56 496.668 172.6C501.548 169.56 507.268 168.04 513.828 168.04C520.388 168.04 526.028 169.56 530.748 172.6C535.548 175.56 539.268 179.48 541.908 184.36C544.548 189.24 545.868 194.48 545.868 200.08C545.868 201.04 545.828 201.96 545.748 202.84C545.668 203.64 545.588 204.32 545.508 204.88H495.228C495.468 208.56 496.468 211.8 498.228 214.6C500.068 217.32 502.388 219.48 505.188 221.08C507.988 222.6 510.988 223.36 514.188 223.36C517.708 223.36 521.028 222.48 524.148 220.72C527.348 218.96 529.508 216.64 530.628 213.76L541.908 217C540.548 220.04 538.468 222.8 535.668 225.28C532.948 227.68 529.708 229.6 525.948 231.04C522.188 232.4 518.108 233.08 513.708 233.08ZM494.868 196.12H532.788C532.548 192.52 531.508 189.36 529.668 186.64C527.908 183.84 525.628 181.68 522.828 180.16C520.108 178.56 517.068 177.76 513.708 177.76C510.428 177.76 507.388 178.56 504.588 180.16C501.868 181.68 499.628 183.84 497.868 186.64C496.108 189.36 495.108 192.52 494.868 196.12Z" fill="#E7E1D9"/>
<path fill-rule="evenodd" clip-rule="evenodd" d="M466.212 179.278C489.661 178.12 497.894 172.328 501.376 144.389C503.759 125.266 485.632 109.5 466.212 109.5C446.792 109.5 429.97 117.733 431.05 144.389C431.83 163.643 446.817 180.233 466.212 179.278Z" fill="#CDDBE3"/>
<path fill-rule="evenodd" clip-rule="evenodd" d="M447.977 141.948C446.498 141.948 445.43 141.201 445.43 139.781C445.43 138.344 446.498 137.613 447.977 137.613C449.457 137.613 450.525 138.344 450.525 139.781C450.525 141.201 449.457 141.948 447.977 141.948ZM447.977 135.402C444.712 135.402 442.663 137.057 442.663 139.781C442.663 142.49 444.712 144.172 447.977 144.172C451.227 144.172 453.28 142.49 453.28 139.781C453.28 137.057 451.227 135.402 447.977 135.402Z" fill="#1D344A"/>
<mask id="mask0_1_599" style="mask-type:luminance" maskUnits="userSpaceOnUse" x="431" y="109" width="71" height="71">
<path d="M431 179.318H501.588V109.5H431V179.318Z" fill="white"/>
</mask>
<g mask="url(#mask0_1_599)">
<path fill-rule="evenodd" clip-rule="evenodd" d="M456.83 140.527H477.033V138.257H456.83V140.527Z" fill="#1D344A"/>
</g>
<mask id="mask1_1_599" style="mask-type:luminance" maskUnits="userSpaceOnUse" x="431" y="109" width="71" height="71">
<path d="M431 179.318H501.588V109.5H431V179.318Z" fill="white"/>
</mask>
<g mask="url(#mask1_1_599)">
<path fill-rule="evenodd" clip-rule="evenodd" d="M487.584 135.431C486.135 135.431 484.933 136.002 484.246 137.011V135.9V131.053H481.361V135.722V143.836H484.246V139.033C484.86 138.036 485.681 137.584 486.632 137.584C487.731 137.584 488.33 138.198 488.33 139.254V143.836H491.216V139.064C491.216 136.94 489.941 135.431 487.584 135.431Z" fill="#1D344A"/>
</g>
<mask id="mask2_1_599" style="mask-type:luminance" maskUnits="userSpaceOnUse" x="431" y="109" width="71" height="71">
<path d="M431 179.318H501.588V109.5H431V179.318Z" fill="white"/>
</mask>
<g mask="url(#mask2_1_599)">
<path fill-rule="evenodd" clip-rule="evenodd" d="M461.683 163.504L460.943 161.734L472.56 156.897L473.296 158.667L461.683 163.504Z" fill="#1D344A"/>
</g>
<mask id="mask3_1_599" style="mask-type:luminance" maskUnits="userSpaceOnUse" x="431" y="109" width="71" height="71">
<path d="M431 179.318H501.588V109.5H431V179.318Z" fill="white"/>
</mask>
<g mask="url(#mask3_1_599)">
<path fill-rule="evenodd" clip-rule="evenodd" d="M461.683 163.504L460.943 161.734L472.56 156.897L473.296 158.667L461.683 163.504Z" stroke="#1D344A" stroke-width="0.5"/>
</g>
</svg>
