<svg width="23" height="24" viewBox="0 0 23 24" fill="none" xmlns="http://www.w3.org/2000/svg">
<g opacity="0.4518">
<mask id="mask0_1_129" style="mask-type:luminance" maskUnits="userSpaceOnUse" x="0" y="0" width="23" height="24">
<g opacity="0.4518">
<path d="M0 0.805664H22.6825V23.8524H0V0.805664Z" fill="white"/>
</g>
</mask>
<g mask="url(#mask0_1_129)">
<path fill-rule="evenodd" clip-rule="evenodd" d="M11.3023 21.7837C11.3023 21.7675 11.3023 21.7522 11.3031 21.7369C12.2405 21.7369 13.1772 21.7579 14.1138 21.7313C15.056 21.7038 16.0054 21.6821 16.9389 21.5619C18.3585 21.3788 19.4419 20.6442 20.0597 19.2942C20.3944 18.5627 20.4983 17.7772 20.5237 16.9804C20.553 16.0683 20.5887 15.1562 20.5832 14.2433C20.5721 11.9546 20.5491 9.66431 20.507 7.3756C20.4936 6.62722 20.3357 5.89335 20.0058 5.21754C19.4015 3.97883 18.3784 3.29496 17.0658 3.09738C16.2124 2.96835 15.3424 2.92238 14.4787 2.91028C12.5252 2.88206 10.5718 2.87802 8.61921 2.90464C7.61435 2.91835 6.60077 2.95706 5.60621 3.09657C3.83997 3.34415 2.64477 4.48448 2.30215 6.25625C2.13639 7.11351 2.09197 8.00383 2.07294 8.88044C2.03487 10.6498 2.04201 12.42 2.05073 14.1893C2.05708 15.5175 2.02059 16.8506 2.24108 18.1667C2.4457 19.3845 3.01673 20.3788 4.08821 21.0175C4.83214 21.4603 5.65935 21.6361 6.50877 21.6651C8.10608 21.7183 9.70418 21.7458 11.3023 21.7837ZM22.6825 12.3079C22.6564 13.8458 22.6429 15.3829 22.6008 16.92C22.5675 18.1458 22.3819 19.345 21.8077 20.4474C20.9321 22.1313 19.5498 23.1377 17.7367 23.5595C16.6383 23.8159 15.5168 23.828 14.4001 23.8369C12.25 23.8554 10.0991 23.8635 7.94983 23.8256C6.97749 23.8087 5.99166 23.7546 5.03756 23.5756C2.4227 23.0837 0.638214 21.195 0.206766 18.4909C0.0648002 17.6022 0.0156278 16.6909 0.00848984 15.7885C-0.0113377 13.2264 0.00611053 10.6635 0.025145 8.10141C0.0322829 7.23609 0.10049 6.37399 0.328904 5.53286C0.972904 3.16673 2.47425 1.69899 4.80914 1.10141C5.78783 0.850605 6.79111 0.81996 7.78884 0.814314C10.2855 0.798992 12.7822 0.804637 15.2789 0.826411C16.4384 0.836089 17.5924 0.932863 18.69 1.36915C20.4809 2.07964 21.6475 3.37883 22.2273 5.23448C22.5025 6.11431 22.5969 7.02238 22.6088 7.93609C22.6278 9.39254 22.6143 10.8506 22.6143 12.3079C22.6373 12.3079 22.6595 12.3079 22.6825 12.3079Z" fill="white"/>
</g>
<path fill-rule="evenodd" clip-rule="evenodd" d="M9.15844 16.2935C9.15844 15.0927 9.15448 13.8919 9.16162 12.6911C9.1632 12.4532 9.0823 12.3628 8.84517 12.3741C8.51524 12.3886 8.18372 12.3701 7.85299 12.3765C7.68089 12.3798 7.59127 12.3282 7.59283 12.1338C7.59841 11.3895 7.59762 10.6451 7.59283 9.90074C7.59127 9.70719 7.67217 9.62493 7.85775 9.62735C8.17341 9.62977 8.48827 9.62735 8.80313 9.62493C9.14575 9.62251 9.15448 9.61364 9.15844 9.25558C9.16558 8.71929 9.16082 8.18219 9.17748 7.64671C9.19572 7.07574 9.26472 6.51203 9.53041 5.99429C9.93172 5.21526 10.6027 4.7701 11.4243 4.68058C12.4467 4.56929 13.4817 4.58945 14.5111 4.55155C14.665 4.5459 14.7189 4.62655 14.7189 4.77332C14.7173 5.56606 14.7165 6.35881 14.7197 7.15155C14.7205 7.333 14.6102 7.3588 14.4714 7.3588C14.0693 7.35961 13.6688 7.35881 13.2667 7.36284C13.1168 7.36445 12.9669 7.36848 12.8194 7.38864C12.5521 7.42574 12.411 7.55155 12.3951 7.82171C12.365 8.36445 12.3642 8.9088 12.3483 9.45316C12.3451 9.62171 12.457 9.61768 12.572 9.62009C13.1541 9.62977 13.7362 9.6338 14.3192 9.65477C14.6729 9.66687 14.7062 9.6959 14.6824 10.0499C14.6356 10.7282 14.5634 11.404 14.5103 12.0814C14.4952 12.2765 14.3993 12.3346 14.22 12.3362C13.7077 12.3419 13.1969 12.3588 12.6846 12.3741C12.3634 12.3838 12.3491 12.3967 12.3491 12.7169C12.3475 14.9024 12.3483 17.0886 12.3475 19.2741C12.3475 19.4983 12.338 19.7225 12.3451 19.9467C12.3515 20.1838 12.2373 20.2782 12.016 20.2782C11.4093 20.2774 10.8033 20.2806 10.1974 20.2822C9.97613 20.283 9.75644 20.2822 9.53596 20.283C9.20682 20.2838 9.15844 20.2435 9.15686 19.9201C9.1521 19.1507 9.15289 18.383 9.1521 17.6145V16.2935H9.15844Z" fill="white"/>
</g>
</svg>
