<svg width="196" height="115" viewBox="0 0 196 115" fill="none" xmlns="http://www.w3.org/2000/svg">
<path fill-rule="evenodd" clip-rule="evenodd" d="M109.017 19.1111C111.725 19.0958 113.449 18.5047 114.472 17.3838C116.09 15.6091 116.818 13.4807 116.759 11.098C116.711 9.0676 115.994 7.28523 114.576 5.81523C114.091 5.31451 113.643 4.69895 113.048 4.40648C111.529 3.66382 109.856 3.45098 108.211 3.79551C102.659 4.95926 100.206 11.2956 103.473 15.9184C104.991 18.0668 107.143 18.9794 109.017 19.1111ZM109.225 2.85379C109.898 2.95945 110.667 3.04367 111.418 3.20904C112.693 3.48773 113.715 4.23192 114.654 5.10473C116.629 6.93917 117.659 9.20848 117.584 11.905C117.523 14.0442 116.89 16.0333 115.535 17.7329C114.125 19.4985 112.196 20.2059 110.012 20.2473C106.879 20.31 104.513 18.9579 102.498 16.5171C99.285 12.6186 101.2 4.29776 107.972 2.97782C108.348 2.90432 108.74 2.89973 109.225 2.85379Z" fill="#DBC0BD"/>
<path fill-rule="evenodd" clip-rule="evenodd" d="M116.402 44.3647C116.402 45.357 116.418 46.0751 116.389 46.7918C116.382 46.9464 116.246 47.1792 116.119 47.2205C115.985 47.2649 115.726 47.1746 115.635 47.0551C115.518 46.9036 115.483 46.6662 115.471 46.4626C115.33 44.4291 115.217 42.394 115.061 40.3636C114.997 39.5428 114.847 38.7282 114.731 37.9136C114.702 37.7038 114.61 37.4986 114.621 37.295C114.633 37.0882 114.734 36.8876 114.795 36.684C114.951 36.8264 115.191 36.9412 115.248 37.1173C115.489 37.8661 115.761 38.6195 115.867 39.3943C116.104 41.1338 116.248 42.884 116.402 44.3647Z" fill="#DBC0BD"/>
<mask id="mask0_12_2" style="mask-type:luminance" maskUnits="userSpaceOnUse" x="120" y="27" width="4" height="20">
<path d="M120.494 27.4547H123.936V46.3258H120.494V27.4547Z" fill="white"/>
</mask>
<g mask="url(#mask0_12_2)">
<path fill-rule="evenodd" clip-rule="evenodd" d="M123.325 38.8288C123.002 35.1783 122.661 31.534 121.224 28.1055C121.166 27.9661 121.146 27.8467 121.162 27.7334C121.083 27.6476 121.013 27.5558 120.954 27.4547C120.783 27.493 120.624 27.5496 120.494 27.6461C120.546 27.8207 120.575 28.0029 120.575 28.1851C120.641 28.1438 120.708 28.1086 120.772 28.0687C121.069 29.3626 121.478 30.5815 121.606 31.8295C121.868 34.3652 121.978 36.9163 122.147 39.4597C122.258 41.0767 122.317 42.6968 122.496 44.3061C122.562 44.888 122.878 45.4561 123.151 45.9951C123.235 46.1635 123.551 46.2171 123.761 46.3258C123.822 46.087 123.954 45.8435 123.934 45.6138C123.744 43.3506 123.525 41.0905 123.325 38.8288Z" fill="#DBC0BD"/>
</g>
<path fill-rule="evenodd" clip-rule="evenodd" d="M120.781 28.1191C120.859 28.0272 120.956 27.9522 121.06 27.8818C121.095 27.8374 121.133 27.7991 121.175 27.7608C121.19 27.6306 121.239 27.5051 121.349 27.3703C122.118 26.4225 122.374 25.3139 122.077 24.1425C121.649 22.4627 120.304 21.6863 118.386 21.8012C116.161 21.9344 113.93 22.0492 111.701 22.0646C108.45 22.0875 105.194 22.1166 101.95 21.9528C98.4444 21.7736 94.9467 21.3893 91.4489 21.0723C88.5292 20.8089 85.6142 20.7538 82.7312 21.351C78.6737 22.1901 75.6501 24.3522 74.1849 28.3702C73.9402 29.044 73.827 29.7637 73.6389 30.4589C72.7855 33.6163 72.4169 36.8503 72.1156 40.0904C71.9871 41.4716 72.0315 42.8696 72.0055 44.2585C71.9978 44.8036 71.9963 45.3472 72.0238 45.8893C72.0315 46.0256 72.1676 46.1557 72.2441 46.2874C72.3894 46.1281 72.4092 46.0286 72.4138 45.9291C72.4995 44.208 72.4888 42.4746 72.6845 40.7657C73.0654 37.4475 73.4798 34.1339 74.3088 30.883C74.7355 29.2155 75.1438 27.5526 76.2052 26.1729C77.854 24.0246 80.041 22.7092 82.6991 22.1534C86.229 21.4138 89.7757 21.5883 93.301 22.0446C97.2668 22.5576 101.242 22.8593 105.233 22.9236C108.188 22.9726 111.142 22.9328 114.098 22.9251C114.447 22.9236 114.798 22.8822 115.149 22.8577C116.394 22.7766 117.639 22.6296 118.883 22.625C121.208 22.6158 121.843 24.7335 120.98 26.3429C120.566 27.1161 119.928 27.6735 119.116 27.9859C118.281 28.3059 117.434 28.6091 116.568 28.8311C112.319 29.9183 107.959 30.1189 103.609 30.4252C102.251 30.5201 100.907 30.834 99.5594 31.076C99.0837 31.1586 98.7472 31.419 98.6371 31.9549C98.4108 33.0559 98.1324 34.1446 97.8847 35.2394C97.1368 38.55 97.0588 41.905 97.2851 45.2706C97.3325 45.9781 97.5772 46.6794 97.7883 47.3654C97.9015 47.7329 98.2012 47.9457 98.6203 47.8003C98.9552 47.6808 99.0608 47.2582 98.8971 46.8463C98.7824 46.5554 98.6387 46.2614 98.6004 45.9551C98.4689 44.9292 98.3741 43.8971 98.2701 42.8651C97.9168 39.2865 98.3098 35.7692 99.177 32.2979C99.2244 32.105 99.4492 31.8477 99.6267 31.8156C100.803 31.6073 101.982 31.3991 103.17 31.2919C106.339 31.0101 109.523 30.8861 112.677 30.4971C115.461 30.1541 118.252 29.6825 120.772 28.087C120.775 28.0977 120.778 28.1084 120.781 28.1191Z" fill="#A4C1CF"/>
<path fill-rule="evenodd" clip-rule="evenodd" d="M88.8535 16.2579C91.559 16.2426 93.2827 15.65 94.3074 14.5322C95.8934 12.8065 96.6183 10.7255 96.6045 8.40564C96.5923 6.32161 95.8796 4.47799 94.4159 2.96358C93.9311 2.46439 93.4845 1.84577 92.8896 1.5533C91.3709 0.810642 89.6977 0.597798 88.0536 0.940798C82.5018 2.09995 80.0425 8.44086 83.3078 13.0606C84.8265 15.2105 86.9769 16.1216 88.8535 16.2579ZM89.063 0.000610352C89.7344 0.106267 90.5037 0.190485 91.2562 0.354329C92.5317 0.634548 93.5534 1.37874 94.4924 2.25155C96.4669 4.08599 97.4977 6.35377 97.4212 9.05183C97.3601 11.191 96.7284 13.1785 95.3734 14.8782C93.9617 16.6438 92.0347 17.3512 89.8507 17.3941C86.7154 17.4553 84.3509 16.1032 82.3367 13.664C79.1218 9.76539 81.0367 1.44458 87.8104 0.12311C88.1867 0.0496104 88.5782 0.0450166 89.063 0.000610352Z" fill="#A4C1CF"/>
<mask id="mask1_12_2" style="mask-type:luminance" maskUnits="userSpaceOnUse" x="79" y="34" width="3" height="15">
<path d="M79.5481 34.7346H81.0775V48.1266H79.5481V34.7346Z" fill="white"/>
</mask>
<g mask="url(#mask1_12_2)">
<path fill-rule="evenodd" clip-rule="evenodd" d="M80.621 34.7346C80.6837 35.6319 80.7831 36.4986 80.7984 37.3683C80.8458 40.4094 80.8687 43.4504 80.8947 46.493C80.8978 46.7564 80.858 47.0182 80.8412 47.2801C80.8014 47.8512 80.5017 48.133 79.8471 48.127C79.8073 47.9018 79.7263 47.669 79.7308 47.4393C79.815 43.9956 79.9098 40.5518 80.0031 37.108C80.0168 36.546 80.0107 35.981 80.0566 35.4221C80.0795 35.1312 80.1025 34.7759 80.621 34.7346Z" fill="#A4C1CF"/>
</g>
<path fill-rule="evenodd" clip-rule="evenodd" d="M88 97L98.0008 115L108 97H88Z" fill="#A5C2D0"/>
<mask id="mask2_12_2" style="mask-type:luminance" maskUnits="userSpaceOnUse" x="0" y="47" width="14" height="14">
<path d="M0 47.828H13.0762V60.5793H0V47.828Z" fill="white"/>
</mask>
<g mask="url(#mask2_12_2)">
<path fill-rule="evenodd" clip-rule="evenodd" d="M0.238496 56.744C0.694731 55.724 1.34532 54.829 1.99591 53.9323C2.81285 52.824 5.61614 49.5157 6.23379 48.9323C7.39826 47.7657 8.20532 47.5573 9.3352 48.1473C11.3216 49.0573 13.4743 50.079 13.0131 51.3507C12.603 52.824 10.5507 51.7407 9.04203 50.724C8.50508 50.4057 8.13779 50.3457 7.72108 50.8773C7.3752 51.334 7.02438 51.7157 6.69167 52.1423C6.41167 52.449 6.4545 52.829 6.84485 53.0807C8.06532 53.784 8.97944 54.059 8.62861 55.1623C8.05708 56.599 6.72461 55.6657 5.17473 55.1357C4.56697 54.894 4.29355 54.949 3.90485 55.4207C3.65285 55.739 3.40579 56.134 3.17191 56.4973C2.92814 56.964 3.04508 57.3407 3.57708 57.5857C5.44485 58.4423 6.89591 58.2373 6.54508 59.7407C6.44626 60.2007 6.00814 60.5423 5.45473 60.579C4.87167 60.6007 1.46226 59.4373 1.0785 59.2623C0.0210842 58.669 -0.258916 57.854 0.238496 56.744Z" fill="#F3EEE7"/>
</g>
<path fill-rule="evenodd" clip-rule="evenodd" d="M17.9492 65.6942C18.6854 64.5592 19.4414 63.4658 21.2795 60.8392C21.7852 60.0758 22.131 59.5708 21.8988 59.2442C21.6682 58.9192 21.1494 59.2225 20.6602 59.5392L18.7579 60.9575C17.7087 61.7025 17.1405 61.8508 16.5376 61.6025C15.5445 61.1825 15.7174 59.9875 15.92 58.6992C15.999 58.1692 16.1061 57.8592 15.7388 57.7292C15.4308 57.6192 15.1607 57.9075 14.8543 58.2892C13.8282 59.5642 12.8746 60.8308 11.9193 62.2008C11.2868 63.2325 10.5917 63.5458 9.97081 63.1525C9.44045 62.7908 9.23457 62.0892 9.55245 61.4692C10.231 60.0008 14.2943 55.0208 16.0517 53.1308C16.7419 52.3275 17.5061 52.0075 18.1205 52.2242C19.4414 52.6908 19.1532 54.8225 18.9045 56.4408C18.8369 56.8375 18.8666 57.0542 19.1499 57.2258C19.448 57.3658 19.6539 57.2642 20.2369 56.8775C21.6797 55.9942 24.1866 54.7175 25.2308 55.0875C25.8748 55.3142 26.2256 55.9975 26.1317 56.8692C26.0016 58.0442 24.9623 59.5592 24.2261 60.6942C22.5626 63.3142 20.2402 66.7475 19.6868 67.2508C19.1976 67.6708 18.5701 67.6908 18.0925 67.2775C17.5917 66.9275 17.5407 66.2825 17.9492 65.6942Z" fill="#F3EEE7"/>
<path fill-rule="evenodd" clip-rule="evenodd" d="M32.8773 60.4192C32.818 59.7558 32.3123 59.7542 31.6766 60.1242C30.0509 61.2858 28.674 62.7842 28.1156 64.8825C27.8801 65.7725 27.9147 66.3958 28.4006 66.5975C29.598 67.1625 32.925 62.1358 32.8773 60.4192ZM25.7439 67.3375C24.7359 64.1642 27.5671 59.8558 30.6982 57.8458C31.2648 57.4892 31.8693 57.2458 32.4391 57.1275C33.3417 57.0325 33.8095 57.2975 34.1751 58.0792C34.3431 58.4642 34.5194 58.6842 34.7664 58.8875C35.5966 59.6942 35.4071 61.5525 34.7829 62.8825C33.5674 65.4142 31.8166 67.9392 29.5815 68.9975C27.8768 69.8292 26.3417 69.1375 25.7439 67.3375Z" fill="#F3EEE7"/>
<path fill-rule="evenodd" clip-rule="evenodd" d="M38.1176 69.9439C39.3561 67.9872 42.1463 62.7272 42.3686 61.6639C42.4296 61.3722 42.3554 61.0889 42.0046 61.0139C40.2867 60.6472 38.4041 60.5822 37.6399 60.4189C37.2578 60.3372 36.9926 60.0122 36.9481 59.4305C36.8576 58.7372 37.5872 58.1189 38.4404 58.1689C40.7627 58.1905 42.4328 58.4805 48.6357 59.8372C49.8776 60.1022 50.4013 60.6172 50.2399 61.3905C50.1279 61.9372 49.6074 62.3655 48.9881 62.3005C48.2107 62.2022 47.1517 62.0105 46.5159 61.8739C45.274 61.6105 45.1571 61.6855 44.5921 62.8105C43.1691 65.8055 41.5154 69.1205 40.127 71.3139C39.5505 72.1672 38.7303 72.4305 38.1357 71.9322C37.5394 71.4372 37.5345 70.8289 38.1176 69.9439Z" fill="#F3EEE7"/>
<path fill-rule="evenodd" clip-rule="evenodd" d="M52.8044 62.2338C53.1964 61.6672 53.7959 61.4355 54.2867 61.6538C55.0312 61.9472 55.135 62.7005 54.6277 63.9488C53.7745 66.1055 52.5985 68.0072 51.4966 70.0538C50.2086 72.4372 49.5844 74.0005 48.4364 73.3705C47.1171 72.7755 48.158 71.0855 48.9223 69.6805C50.5265 66.9855 52.4338 62.8722 52.8044 62.2338Z" fill="#F3EEE7"/>
<path fill-rule="evenodd" clip-rule="evenodd" d="M61.8214 66.0067C61.6781 65.3567 61.1774 65.42 60.5927 65.8733C59.1301 67.235 57.9557 68.9017 57.6691 71.055C57.5456 71.9683 57.6625 72.5817 58.1698 72.7183C59.4282 73.1233 62.0882 67.705 61.8214 66.0067ZM55.6284 73.8C54.2251 70.785 56.4849 66.1433 59.3327 63.7417C59.8498 63.3133 60.4181 62.9917 60.9682 62.8017C61.851 62.5883 62.3484 62.79 62.8096 63.5183C63.0237 63.88 63.228 64.0733 63.5014 64.2433C64.427 64.9333 64.4731 66.8017 64.0251 68.2017C63.144 70.8717 61.7275 73.6033 59.6473 74.945C58.0611 75.9917 56.452 75.5067 55.6284 73.8Z" fill="#F3EEE7"/>
<path fill-rule="evenodd" clip-rule="evenodd" d="M64.9997 74.7307C65.0409 74.2723 66.011 71.7807 66.8477 70.0723C68.3465 66.7723 69.6296 63.3523 70.9555 63.4723C71.3804 63.4773 71.7526 63.709 72.0129 64.0957C72.4148 64.6957 72.8331 67.0107 72.9945 68.514L73.1773 69.7523C73.2959 70.2573 73.3733 70.4973 73.7307 70.529C74.1524 70.5673 74.3698 69.9257 74.9726 68.6573C75.7797 66.9157 76.651 65.1757 77.3131 64.7057C77.5536 64.5623 77.7908 64.4857 78.1136 64.514C78.5995 64.5573 79.2056 65.0757 79.1067 65.8273C79.087 66.0573 78.9667 66.309 78.8119 66.5923C77.3675 68.909 76.9112 69.9907 75.3284 73.5157C75.0023 74.2457 74.6333 75.1057 74.1557 76.084C73.9169 76.5607 73.5018 76.819 73.0489 76.779C72.5943 76.7373 72.1611 76.4673 71.8482 75.944C71.3376 75.0707 71.3656 74.0157 70.7035 69.6607C70.5816 69.2207 70.0644 69.1407 69.8355 69.5173C68.9164 71.0523 67.9578 73.4107 67.3632 74.9757C67.0239 75.8723 66.4639 76.284 65.7969 76.0573C65.2912 75.879 64.9453 75.3523 64.9997 74.7307Z" fill="#F3EEE7"/>
<path fill-rule="evenodd" clip-rule="evenodd" d="M85.1006 71.9425C85.4086 70.3108 85.4201 70.0475 85.1352 69.9342C84.4977 69.6058 82.966 71.6375 83.2624 72.2475C83.3777 72.5492 83.6347 72.5958 84.1881 72.6225C84.6427 72.6458 85.0116 72.4325 85.1006 71.9425ZM84.3841 75.9292C84.4384 75.5025 84.1947 75.1275 83.7747 75.0742L81.701 74.8708C81.342 74.8525 81.1064 75.0058 80.8264 75.3875C80.161 76.3442 79.3227 77.5225 79.0509 77.7392C78.6145 78.0142 78.0627 77.9858 77.6542 77.6692C77.0563 77.2442 77.0596 76.5175 77.758 75.5308L80.7144 71.0642C81.9464 69.1808 84.9243 65.5725 86.1283 64.9075C87.1989 64.3358 88.2168 64.8808 88.3222 66.0392C88.4194 67.3942 86.965 76.4542 86.5434 77.7508C86.3523 78.3342 85.817 78.6375 85.2356 78.5092C84.1387 78.2908 84.3149 77.3425 84.3841 75.9292Z" fill="#F3EEE7"/>
<path fill-rule="evenodd" clip-rule="evenodd" d="M89.8793 76.5145C89.792 75.7878 90.9054 72.8428 92.0897 69.6012C92.5937 68.2245 93.1026 66.8495 93.577 65.4412C93.9525 64.2612 94.4433 63.8745 95.2224 64.0828C96.0327 64.2912 96.2485 65.0195 95.8104 66.2628C94.9967 68.6212 94.1831 70.9462 93.6774 72.3545C93.1026 73.9595 92.7996 74.6462 93.2525 74.8828C93.4782 75.0195 94.0003 74.9595 95.14 74.7445C96.153 74.5612 96.9963 74.6062 97.1149 75.5645C97.2021 76.1562 96.8694 76.7112 96.3144 76.8695C94.8106 77.3412 91.8113 77.9245 91.2266 77.8828C90.4459 77.8395 89.9979 77.3728 89.8793 76.5145Z" fill="#F3EEE7"/>
<path fill-rule="evenodd" clip-rule="evenodd" d="M107.991 75.284C108.457 73.179 109.158 67.2373 109.364 65.709C109.503 64.7123 109.929 64.1923 110.545 64.1557C111.39 64.139 111.925 64.9323 111.754 65.9323C111.626 67.0923 111.23 69.8207 111.268 70.5107C111.288 70.8373 111.69 71.0457 111.97 70.799C112.34 70.4473 113.068 69.514 113.54 69.2223C114.325 68.6807 115.18 68.8607 115.687 69.7223C116.152 70.454 116.158 72.2657 116.781 72.329C117.339 72.3957 117.992 70.7073 119.014 68.109C120.213 65.1373 120.721 63.1957 122.119 63.7073C122.621 63.9407 122.949 64.549 122.784 65.1173C122.552 66.154 118.25 76.3623 117.802 77.049C117.084 78.179 115.743 78.094 115.187 76.9057C114.776 76.0073 114.557 75.0307 114.338 74.0207C114.076 72.884 113.65 72.8107 112.887 73.7123C110.552 76.749 110.341 77.0573 110.156 77.2657C109.695 77.7223 109.181 77.8523 108.648 77.6523C107.948 77.364 107.706 76.554 107.991 75.284Z" fill="#F3EEE7"/>
<path fill-rule="evenodd" clip-rule="evenodd" d="M124.571 74.9277C124.457 73.8143 124.571 72.7093 124.686 71.6043C124.837 70.231 125.605 65.9427 125.847 65.1227C126.269 63.521 126.865 62.9293 128.131 62.861C130.301 62.6293 132.667 62.4127 132.905 63.7443C133.287 65.2277 130.976 65.341 129.164 65.2343C128.542 65.2343 128.196 65.371 128.103 66.0427C128.031 66.6127 127.919 67.121 127.843 67.6593C127.756 68.066 127.983 68.3727 128.444 68.391C129.849 68.3727 130.775 68.1443 131.022 69.276C131.246 70.8077 129.63 70.6827 128.029 71.0177C127.385 71.1193 127.175 71.306 127.074 71.9127C127.016 72.3177 127 72.7827 126.98 73.216C127.003 73.7427 127.291 74.0093 127.875 73.9477C129.914 73.731 131.062 72.8143 131.51 74.291C131.655 74.7393 131.445 75.2577 130.987 75.5727C130.497 75.8877 126.974 76.6277 126.552 76.671C125.345 76.6993 124.696 76.141 124.571 74.9277Z" fill="#F3EEE7"/>
<path fill-rule="evenodd" clip-rule="evenodd" d="M134.434 74.384C134.239 73.679 134.896 70.5957 135.578 67.2073C135.875 65.7707 136.168 64.334 136.425 62.8673C136.618 61.6423 137.047 61.184 137.846 61.2707C138.68 61.3523 139.004 62.039 138.757 63.3357C138.307 65.7923 137.853 68.2173 137.563 69.6873C137.235 71.3623 137.041 72.0873 137.523 72.2523C137.766 72.3507 138.275 72.2123 139.37 71.8257C140.342 71.489 141.183 71.4023 141.443 72.3307C141.62 72.9023 141.376 73.504 140.851 73.7423C139.436 74.4407 136.557 75.479 135.972 75.529C135.195 75.6057 134.681 75.2123 134.434 74.384Z" fill="#F3EEE7"/>
<path fill-rule="evenodd" clip-rule="evenodd" d="M143.319 73.1112C143.1 72.4145 143.65 69.3078 144.213 65.8995C144.457 64.4512 144.702 63.0045 144.908 61.5312C145.06 60.2995 145.471 59.8245 146.275 59.8828C147.11 59.9362 147.459 60.6095 147.257 61.9145C146.891 64.3878 146.522 66.8262 146.283 68.3045C146.015 69.9912 145.844 70.7228 146.333 70.8695C146.578 70.9595 147.081 70.8028 148.163 70.3778C149.121 70.0062 149.961 69.8895 150.253 70.8078C150.45 71.3745 150.225 71.9828 149.709 72.2428C148.319 72.9912 145.478 74.1295 144.895 74.1995C144.121 74.3045 143.594 73.9312 143.319 73.1112Z" fill="#F3EEE7"/>
<path fill-rule="evenodd" clip-rule="evenodd" d="M152.239 71.4657C152.137 71.0157 152.303 68.3457 152.58 66.459C153.005 62.8507 153.185 59.199 154.484 58.899C154.889 58.7723 155.313 58.8757 155.678 59.164C156.245 59.6073 157.345 61.684 157.956 63.0623L158.508 64.184C158.775 64.6273 158.921 64.8323 159.269 64.7523C159.681 64.6557 159.695 63.979 159.883 62.5857C160.12 60.6723 160.422 58.7473 160.909 58.0957C161.095 57.884 161.295 57.7373 161.611 57.664C162.087 57.554 162.823 57.8573 162.958 58.6023C163.008 58.8273 162.971 59.1057 162.909 59.424C162.237 62.0757 162.133 63.2473 161.697 67.0957C161.609 67.8907 161.519 68.824 161.362 69.9057C161.278 70.4323 160.964 70.8073 160.519 70.9107C160.076 71.014 159.58 70.889 159.124 70.489C158.373 69.819 158.078 68.8057 156.125 64.8673C155.874 64.4873 155.36 64.5707 155.255 64.999C154.848 66.7473 154.652 69.2907 154.561 70.9657C154.509 71.9223 154.102 72.4873 153.4 72.4807C152.863 72.4707 152.374 72.0757 152.239 71.4657Z" fill="#F3EEE7"/>
<path fill-rule="evenodd" clip-rule="evenodd" d="M166.284 67.6978C165.976 66.6228 165.896 65.5162 165.815 64.4078C165.723 63.0295 165.728 58.6762 165.821 57.8245C165.958 56.1745 166.437 55.4862 167.674 55.1895C169.766 54.5745 172.056 53.9362 172.522 55.2045C173.159 56.5945 170.904 57.1195 169.104 57.3412C168.491 57.4528 168.175 57.6478 168.201 58.3262C168.231 58.9012 168.211 59.4195 168.231 59.9612C168.215 60.3778 168.493 60.6395 168.948 60.5745C170.328 60.3062 171.196 59.9128 171.64 60.9828C172.13 62.4512 170.516 62.6162 168.999 63.2328C168.384 63.4478 168.211 63.6712 168.218 64.2845C168.234 64.6912 168.299 65.1545 168.353 65.5812C168.467 66.0978 168.798 66.3078 169.359 66.1428C171.329 65.5645 172.298 64.4578 172.996 65.8295C173.217 66.2445 173.105 66.7912 172.708 67.1812C172.281 67.5828 168.944 68.9395 168.537 69.0578C167.355 69.3045 166.619 68.8678 166.284 67.6978Z" fill="#F3EEE7"/>
<path fill-rule="evenodd" clip-rule="evenodd" d="M176.861 64.991C176.458 64.4377 176.473 63.6993 176.922 63.2193C177.344 62.751 177.85 62.7077 178.433 63.0893C179.123 63.5727 179.875 63.6477 180.679 63.286C182.31 62.5193 181.837 60.416 179.923 59.5027C179.029 59.1277 177.01 58.4993 176.443 58.0777C175.501 57.371 175.236 56.5227 175.539 55.4327C176.145 53.6377 178.191 51.7043 180.351 50.8827C181.178 50.581 181.748 50.7227 182.059 51.311C182.423 51.9477 182.17 52.4943 181.187 53.1327C180.375 53.5677 179.561 54.0043 178.877 54.7077C177.79 55.8377 177.902 56.146 179.281 56.6227C181.613 57.3493 182.936 58.4427 183.822 60.2543C184.644 61.9827 183.883 64.2193 182.147 65.271C180.412 66.3227 177.703 66.1893 176.861 64.991Z" fill="#F3EEE7"/>
<path fill-rule="evenodd" clip-rule="evenodd" d="M188.61 60.5933C188.16 60.0783 188.111 59.34 188.519 58.8233C188.9 58.32 189.399 58.2333 190.013 58.5633C190.743 58.985 191.499 58.995 192.271 58.5633C193.828 57.6567 193.18 55.6033 191.194 54.8617C190.273 54.565 188.206 54.1133 187.607 53.7417C186.607 53.12 186.269 52.2967 186.48 51.185C186.931 49.3433 188.806 47.24 190.891 46.2333C191.688 45.8617 192.268 45.955 192.627 46.5117C193.045 47.115 192.836 47.6817 191.912 48.4033C191.138 48.9067 190.365 49.4133 189.744 50.1733C188.758 51.3917 188.895 51.6917 190.309 52.0467C192.694 52.5683 194.104 53.5433 195.14 55.27C196.107 56.9217 195.539 59.2167 193.898 60.415C192.26 61.6117 189.548 61.715 188.61 60.5933Z" fill="#F3EEE7"/>
</svg>
