<svg width="22" height="24" viewBox="0 0 22 24" fill="none" xmlns="http://www.w3.org/2000/svg">
<g opacity="0.4518">
<mask id="mask0_1_119" style="mask-type:luminance" maskUnits="userSpaceOnUse" x="0" y="0" width="22" height="24">
<g opacity="0.4518">
<path d="M0.000213623 0.799805H21.5023V23.4848H0.000213623V0.799805Z" fill="white"/>
</g>
</mask>
<g mask="url(#mask0_1_119)">
<path fill-rule="evenodd" clip-rule="evenodd" d="M19.5961 12.139C19.5961 10.5006 19.5968 8.863 19.5953 7.22461C19.5946 6.7062 19.5468 6.19421 19.3806 5.70141C18.773 3.89821 17.3012 2.8126 15.4411 2.8102C12.3141 2.80624 9.18628 2.8006 6.05924 2.8198C5.59117 2.8222 5.10186 2.8902 4.66035 3.047C2.94055 3.655 1.91262 5.227 1.91035 7.1846C1.90579 10.483 1.90807 13.7814 1.91035 17.079C1.91035 17.5902 1.96345 18.0942 2.12883 18.5798C2.73497 20.3654 4.19379 21.4542 6.03117 21.459C9.18021 21.4678 12.3285 21.4654 15.4768 21.459C16.887 21.4566 18.0234 20.8614 18.8549 19.6542C19.3837 18.8878 19.5976 18.015 19.5968 17.075C19.5946 15.4294 19.5961 13.7846 19.5961 12.139ZM5.50393 0.799805H16.0017C16.221 0.836605 16.4432 0.860605 16.6602 0.911805C19.0961 1.4894 20.6574 3.04461 21.3257 5.583C21.4137 5.91421 21.4448 6.2606 21.5025 6.60061V17.671C21.4888 17.7494 21.4805 17.8302 21.4615 17.907C21.3166 18.4974 21.2476 19.1246 21.0086 19.6694C19.9382 22.115 18.097 23.4222 15.5405 23.4598C12.3497 23.507 9.15821 23.4734 5.96669 23.4702C4.73014 23.4686 3.58538 23.1174 2.57641 22.359C0.867242 21.0742 0.0107596 19.3054 0.00544929 17.0926C-0.00289554 13.787 -0.000619677 10.4806 0.00772515 7.1742C0.00924239 6.7486 0.0304838 6.3126 0.116208 5.899C0.653311 3.331 2.13566 1.691 4.53745 0.985405C4.85152 0.893405 5.18152 0.859805 5.50393 0.799805Z" fill="white"/>
</g>
<path fill-rule="evenodd" clip-rule="evenodd" d="M14.3813 12.133C14.3783 10.021 12.7495 8.30503 10.7505 8.30823C8.74703 8.31223 7.12055 10.0298 7.12358 12.1378C7.12662 14.2498 8.75538 15.9658 10.7551 15.9626C12.7571 15.9594 14.3851 14.2402 14.3813 12.133ZM16.293 12.133C16.2961 15.3402 13.7911 17.9818 10.7498 17.9778C7.70317 17.9738 5.20124 15.3314 5.21183 12.1266C5.22248 8.91863 7.70241 6.30263 10.7445 6.293C13.7828 6.28263 16.29 8.92103 16.293 12.133Z" fill="white"/>
<path fill-rule="evenodd" clip-rule="evenodd" d="M16.6631 4.59617C17.2935 4.61537 17.8041 5.17057 17.7851 5.81697C17.7646 6.49857 17.2351 7.02657 16.5948 7.00417C15.9796 6.98177 15.4728 6.42097 15.4895 5.78177C15.5085 5.10897 16.0342 4.57777 16.6631 4.59617Z" fill="white"/>
</g>
</svg>
