<svg width="75" height="130" viewBox="0 0 75 130" fill="none" xmlns="http://www.w3.org/2000/svg">
<path fill-rule="evenodd" clip-rule="evenodd" d="M16.5336 66.4551C16.5336 54.4765 16.5164 42.4975 16.5462 30.5189C16.5531 27.7688 16.718 25.0192 16.8155 22.2695C16.8412 21.5584 16.9158 21.1344 17.8619 20.8465C21.87 19.6258 26 19.4045 30.1096 19.0177C39.8399 18.1022 49.5985 18.2727 59.3513 18.3728C61.0615 18.3906 62.771 18.7351 64.4747 18.9759C65.1944 19.0777 65.8059 19.3858 65.8749 20.2748C66.236 24.9046 66.8414 29.5286 66.9246 34.1629C67.1062 44.3131 67.0666 54.4682 67.0393 64.6213C67.0128 74.4786 66.7929 84.3367 66.8545 94.1932C66.8777 97.972 67.4216 101.75 67.7769 105.524C67.9315 107.176 67.7993 107.4 66.2221 107.341C58.5275 107.052 50.8342 106.718 43.1381 106.479C36.4108 106.269 29.7375 106.952 23.0837 107.903C21.7843 108.089 20.4506 108.011 19.1348 108.093C18.6379 108.123 18.1337 108.213 17.6571 108.359C16.8718 108.599 16.4426 108.319 16.3394 107.527C16.2871 107.124 16.3088 106.71 16.3088 106.301C16.3075 93.0188 16.3079 79.7367 16.3079 66.4547C16.383 66.4551 16.4581 66.4551 16.5336 66.4551Z" fill="#E7E1D9"/>
<mask id="mask0_1_240" style="mask-type:luminance" maskUnits="userSpaceOnUse" x="0" y="0" width="75" height="130">
<path d="M0 0.179443H74.8085V129.587H0V0.179443Z" fill="white"/>
</mask>
<g mask="url(#mask0_1_240)">
<path fill-rule="evenodd" clip-rule="evenodd" d="M14.2092 126.392C14.2006 126.432 14.1912 126.472 14.1826 126.512C14.4879 126.61 14.7863 126.758 15.099 126.798C18.6313 127.25 22.1555 127.873 25.7027 128.076C29.5555 128.298 33.433 128.042 37.2961 128.143C47.026 128.396 56.7293 127.923 66.426 127.209C66.8932 127.174 67.4563 127.124 67.7916 126.852C69.4617 125.498 70.9318 124.002 71.6899 121.864C72.5264 119.504 72.6822 117.075 72.7219 114.633C72.785 110.774 72.6982 106.913 72.7195 103.054C72.792 89.9159 72.8867 76.7789 72.9645 63.6415C72.9699 62.715 72.9047 61.7881 72.8768 60.8616C72.7191 55.5968 72.4096 50.3316 72.4412 45.0684C72.4871 37.4285 72.8256 29.7911 72.9457 22.1509C73.001 18.6309 72.9121 15.1032 72.7432 11.5862C72.6051 8.7105 71.2822 6.64 69.1969 5.68254C69.3494 6.06057 69.46 6.36349 69.592 6.6565C71.0625 9.92796 71.5957 13.3513 71.4789 16.9385C71.2068 25.282 70.9244 33.6276 70.8428 41.974C70.7309 53.4029 70.885 64.8342 70.7703 76.2626C70.6465 88.5433 70.3666 100.823 70.0904 113.101C70.0531 114.756 69.7797 116.438 69.3695 118.044C68.4768 121.539 66.7318 124.269 62.7031 124.579C60.8064 124.726 58.9096 124.876 57.0154 125.051C53.317 125.392 49.6244 125.824 45.9203 126.082C42.2477 126.336 38.5539 126.306 34.8871 126.612C30.0305 127.017 25.1834 127.225 20.3203 126.861C18.2826 126.709 16.2461 126.549 14.2092 126.392ZM3.03504 90.5304C3.03504 93.1098 2.96536 98.1204 3.05676 103.128C3.13258 107.274 3.33299 111.421 3.60184 115.559C3.792 118.49 5.20471 120.86 7.76946 122.24C9.53053 123.187 11.4818 124.04 13.433 124.311C17.2518 124.842 21.1285 125.127 24.9838 125.159C28.7666 125.189 32.5506 124.751 36.3363 124.567C42.9154 124.248 49.4961 123.972 56.0752 123.667C59.2338 123.521 62.2592 122.867 65.067 121.317C66.0654 120.766 66.7977 120.06 67.0109 118.917C67.3232 117.244 67.7596 115.573 67.8592 113.884C68.0621 110.443 68.0973 106.991 68.1621 103.543C68.3297 94.5311 68.5272 85.5194 68.6178 76.5069C68.7318 65.1165 68.7408 53.7256 68.8215 42.3347C68.8391 39.8503 68.9908 37.3662 69.0453 34.8814C69.2125 27.2085 69.4412 19.536 69.4914 11.8623C69.524 6.77701 66.5018 3.22739 61.5178 2.29181C59.6088 1.934 57.6436 1.71774 55.7043 1.71635C48.5215 1.71238 41.3375 1.79285 34.1551 1.90139C26.2076 2.02149 18.2481 1.77057 10.3231 2.68717C8.16536 2.93644 5.95758 3.03673 4.6752 5.10765C3.97069 6.24546 3.2752 7.55247 3.12602 8.84752C2.56618 13.7004 1.85225 18.5835 1.8879 23.45C1.98995 37.3576 1.73872 51.2704 2.55758 65.1747C3.00635 72.7984 2.86823 80.4565 3.03504 90.5304ZM1.07438 89.3249C0.925199 81.1118 1.02315 74.3106 0.632167 67.5378C-0.160047 53.8197 0.018642 40.0962 0.0141338 26.3732C0.0124945 20.6973 0.231347 15.0269 1.35881 9.43603C1.93913 6.55993 3.06905 4.06476 5.91864 2.75733C6.82602 2.34092 7.69651 1.92698 8.7584 2.36568C9.15553 2.52911 9.70102 2.35866 10.174 2.3013C13.674 1.88076 17.1641 1.19527 20.6736 1.06898C32.1203 0.65752 43.5736 0.422281 55.026 0.187456C57.0412 0.146599 59.0957 0.252662 61.0752 0.611297C65.1371 1.34796 68.7215 3.23276 71.849 5.9219C73.4412 7.29123 74.1604 9.26022 74.2313 11.2791C74.4637 17.91 74.6002 24.5466 74.6346 31.1815C74.6576 35.5194 74.3178 39.8589 74.3572 44.1964C74.4268 51.8738 74.7535 59.5488 74.801 67.2266C74.8477 74.72 74.6637 82.2146 74.6121 89.7088C74.5572 97.7238 74.5625 105.739 74.492 113.754C74.4645 116.866 74.5301 120.038 73.1502 122.923C72.4133 124.464 71.4354 125.928 70.3568 127.254C69.3363 128.508 67.717 128.658 66.2035 128.755C61.3916 129.06 56.5793 129.445 51.7617 129.553C46.7924 129.665 41.8166 129.471 36.8441 129.443C32.9031 129.421 28.9625 129.466 25.0219 129.448C20.9453 129.43 16.9457 128.842 13.0842 127.509C9.10184 126.135 5.91741 123.489 3.29651 120.328C2.21413 119.022 1.82561 116.931 1.61618 115.138C1.23954 111.908 1.1379 108.635 1.09569 105.378C1.02028 99.5533 1.07438 93.7276 1.07438 89.3249Z" fill="#02374E"/>
</g>
<path fill-rule="evenodd" clip-rule="evenodd" d="M13.44 16.5109V102.599C29.4239 99.0426 45.2573 99.5472 61.1535 100.478C61.1266 100.169 61.1135 99.8773 61.0735 99.5894C60.2992 93.9789 60.0768 88.3389 60.1719 82.6808C60.3951 69.4066 60.7051 56.1336 60.8055 42.8586C60.8581 35.9115 60.5538 28.9619 60.3861 22.0143C60.338 20.02 60.2037 18.0286 60.0952 15.7485C44.4005 14.3602 28.7887 14.421 13.44 16.5109ZM11.9684 61.8824C11.9684 49.9034 11.9512 37.9248 11.981 25.9462C11.9875 23.1958 12.1528 20.4465 12.2503 17.6965C12.2756 16.9854 12.3507 16.5618 13.2964 16.2739C17.3048 15.0531 21.4348 14.8314 25.5444 14.445C35.2748 13.5296 45.0333 13.7 54.7861 13.7997C56.496 13.8175 58.2062 14.1621 59.9092 14.4028C60.6293 14.5042 61.2404 14.8132 61.3098 15.7022C61.6712 20.3315 62.2759 24.9559 62.3591 29.5898C62.5411 39.74 62.5015 49.8955 62.4741 60.0486C62.4472 69.9059 62.2277 79.7636 62.2889 89.62C62.313 93.3993 62.8564 97.1777 63.2114 100.952C63.3668 102.603 63.2342 102.827 61.657 102.768C53.962 102.479 46.2691 102.145 38.5729 101.906C31.8453 101.697 25.1723 102.379 18.5181 103.33C17.2191 103.516 15.885 103.439 14.5697 103.52C14.0727 103.551 13.5681 103.64 13.092 103.786C12.3066 104.026 11.8774 103.746 11.7742 102.954C11.7219 102.55 11.7436 102.137 11.7436 101.728C11.7423 88.4456 11.7428 75.164 11.7428 61.882C11.8178 61.882 11.8929 61.8824 11.9684 61.8824Z" fill="#02374E"/>
<path fill-rule="evenodd" clip-rule="evenodd" d="M31.9415 113.325C31.9877 113.562 32.0091 113.908 32.1223 114.214C32.6631 115.676 34.2304 116.737 35.6013 116.598C37.2958 116.427 38.8491 115.152 39.1706 113.601C39.2585 113.177 39.2981 112.665 39.1586 112.277C38.7834 111.236 38.3973 110.17 37.8351 109.243C37.0244 107.905 35.9241 107.632 34.564 108.309C32.6308 109.271 32.1495 111.166 31.9415 113.325ZM36.1181 107.135C37.8129 107.279 39.2635 109.147 40.4852 111.243C41.4689 112.932 41.1699 114.695 40.143 116.234C38.8708 118.14 37.0559 119.077 34.8793 118.865C32.7148 118.655 31.1829 117.343 30.3407 115.191C28.9892 111.738 31.8101 107.133 36.1181 107.135Z" fill="#02374E"/>
<path fill-rule="evenodd" clip-rule="evenodd" d="M30.2708 7.47452C32.7117 9.61344 42.1676 9.40631 43.9277 7.16914C43.5227 7.03214 43.1671 6.8454 42.7938 6.79648C40.0693 6.43768 37.3484 5.99652 34.611 5.80938C33.0147 5.70011 31.5535 6.40262 30.2708 7.47452ZM38.0713 4.57275C40.0276 4.8761 41.9908 5.14275 43.937 5.50032C44.7808 5.65526 45.7015 6.11272 45.6501 7.05375C45.6129 7.73302 45.0915 8.54683 44.5429 9.00511C43.0785 10.2279 41.2222 10.5345 39.4091 10.4346C36.9224 10.298 34.4508 9.88865 31.9739 9.58571C31.7247 9.55513 31.4763 9.47318 31.2413 9.38022C30.4047 9.04833 29.4083 8.82041 29.3505 7.68368C29.2906 6.51678 30.2566 6.22729 31.1057 5.89296C33.3343 5.01554 35.6433 4.6702 38.0341 4.87651C38.0466 4.77539 38.0588 4.67428 38.0713 4.57275Z" fill="#02374E"/>
</svg>
