<svg width="213" height="26" viewBox="0 0 213 26" fill="none" xmlns="http://www.w3.org/2000/svg">
<mask id="mask0_1_35" style="mask-type:luminance" maskUnits="userSpaceOnUse" x="0" y="7" width="19" height="15">
<path d="M0.0345459 7.10578H18.011V21.0591H0.0345459V7.10578Z" fill="white"/>
</mask>
<g mask="url(#mask0_1_35)">
<path fill-rule="evenodd" clip-rule="evenodd" d="M9.00493 18.7418C5.59834 18.7418 3.03677 17.2045 3.03677 14.1057C3.03677 10.9609 5.59834 9.42308 9.00493 9.42308C12.4386 9.42308 15.0002 10.9609 15.0002 14.1057C15.0002 17.2045 12.4386 18.7418 9.00493 18.7418ZM9.00493 7.10578C3.40658 7.10578 -1.52588e-05 9.80173 -1.52588e-05 14.1057C-1.52588e-05 18.3869 3.40658 21.0591 9.00493 21.0591C14.6304 21.0591 18.011 18.3869 18.011 14.1057C18.011 9.80173 14.6304 7.10578 9.00493 7.10578Z" fill="#FFFFFE"/>
</g>
<path fill-rule="evenodd" clip-rule="evenodd" d="M23.5877 16.7091L27.4912 13.838L33.3072 20.2029H36.8654L29.749 12.2826L36.4408 7.08994H32.6167L23.5877 14.0055V0.94368H20.4808V20.2029H23.5877V16.7091Z" fill="#FFFFFE"/>
<mask id="mask1_1_35" style="mask-type:luminance" maskUnits="userSpaceOnUse" x="38" y="7" width="36" height="19">
<path d="M38.3923 7.14409H73.5101V25.9486H38.3923V7.14409Z" fill="white"/>
</mask>
<g mask="url(#mask1_1_35)">
<path fill-rule="evenodd" clip-rule="evenodd" d="M41.3447 16.8566C41.3447 14.6985 44.1432 14.2326 46.0175 14.2326C48.1227 14.2326 50.5112 14.7964 51.6407 16.6608V17.0776C50.5112 18.9168 48.1227 19.5059 46.0175 19.5059C44.1432 19.5059 41.3447 19.0399 41.3447 16.8566ZM51.5886 19.1624V19.187C51.5886 19.8247 51.7684 20.4865 52.1285 21.0755H55.2349C54.7729 20.2907 54.5932 19.4813 54.5932 18.4755V13.5949C54.5932 9.37603 51.5886 7.14409 46.6851 7.14409C44.1432 7.14409 41.4478 7.8064 39.7016 8.81216L40.7797 10.7493C42.397 9.84199 44.0407 9.40064 46.12 9.40064C49.7406 9.40064 51.5886 10.7006 51.5886 13.5949V14.576C50.4854 13.2755 48.3282 12.1718 45.4525 12.1718C42.4228 12.1718 38.3923 13.3499 38.3923 16.8566C38.3923 20.3886 42.4228 21.5661 45.4525 21.5661C48.3282 21.5661 50.4854 20.4624 51.5886 19.1624Z" fill="#FFFFFE"/>
</g>
<mask id="mask2_1_35" style="mask-type:luminance" maskUnits="userSpaceOnUse" x="38" y="7" width="36" height="19">
<path d="M38.3923 7.14409H73.5101V25.9486H38.3923V7.14409Z" fill="white"/>
</mask>
<g mask="url(#mask2_1_35)">
<path fill-rule="evenodd" clip-rule="evenodd" d="M59.7493 25.9807H62.8815L73.5101 7.63467H70.3527L64.8063 17.4457L59.1584 7.63467H55.9232L63.2662 20.1922L59.7493 25.9807Z" fill="#FFFFFE"/>
</g>
<path fill-rule="evenodd" clip-rule="evenodd" d="M93.7166 6.61133C90.7429 6.61133 88.353 7.7601 87.0781 9.626V0.94368H83.9711V20.2029H87.0781V12.1386C88.3263 9.98509 90.4237 8.93236 92.9202 8.93236C95.8152 8.93236 97.2754 10.3202 97.2754 12.9043V20.2029H100.356V12.7132C100.356 9.1714 98.1518 6.61133 93.7166 6.61133Z" fill="#FFFFFE"/>
<path fill-rule="evenodd" clip-rule="evenodd" d="M117.73 15.6829C116.481 17.819 114.384 18.8632 111.888 18.8632C108.993 18.8632 107.533 17.4866 107.533 14.9235V7.68442H104.452V15.1134C104.452 18.6261 106.656 21.1659 111.091 21.1659C114.065 21.1659 116.455 20.0264 117.73 18.1751V20.6912H120.837V7.68442H117.73V15.6829Z" fill="#FFFFFE"/>
<path fill-rule="evenodd" clip-rule="evenodd" d="M146.435 6.72146C143.4 6.72146 140.941 8.14566 139.895 10.3288C139.162 8.19277 137.331 6.72146 134.114 6.72146C131.368 6.72146 129.118 7.88422 127.993 9.71171V7.19619H124.933V20.2029H127.993V12.133C129.066 10.1393 130.792 9.02368 133.198 9.02368C135.997 9.02368 137.253 10.495 137.253 12.8925V20.2029H140.287L140.261 18.2564V12.2277C141.334 10.1631 143.112 9.02368 145.519 9.02368C148.318 9.02368 149.573 10.495 149.573 12.8925V20.2029H152.582V12.7263C152.582 9.35605 150.75 6.72146 146.435 6.72146Z" fill="#FFFFFE"/>
<path fill-rule="evenodd" clip-rule="evenodd" d="M169.348 16.6704C168.18 18.5126 165.712 19.1025 163.536 19.1025C161.598 19.1025 158.706 18.6353 158.706 16.4491C158.706 14.2871 161.598 13.8204 163.536 13.8204C165.712 13.8204 168.18 14.3857 169.348 16.2525V16.6704ZM172.4 13.1818C172.4 8.95687 169.295 6.72146 164.226 6.72146C161.598 6.72146 158.812 7.38426 157.007 8.39212L158.122 10.3323C159.793 9.42356 161.492 8.98152 163.642 8.98152C167.384 8.98152 169.295 10.2835 169.295 13.1818V14.165C168.153 12.8624 165.924 11.757 162.952 11.757C159.82 11.757 155.654 12.9364 155.654 16.4491C155.654 19.9866 159.82 21.1659 162.952 21.1659C165.924 21.1659 168.153 20.06 169.295 18.758V18.7826C169.295 19.4213 169.48 20.0846 169.852 20.6746H173.062C172.585 19.888 172.4 19.0778 172.4 18.0705V13.1818Z" fill="#FFFFFE"/>
<path fill-rule="evenodd" clip-rule="evenodd" d="M186.905 6.72146C183.93 6.72146 181.54 7.86092 180.266 9.71171V7.19619H177.159V20.2029H180.266V12.2039C181.514 10.0679 183.612 9.02368 186.108 9.02368C189.003 9.02368 190.463 10.4002 190.463 12.9634V20.2029H193.543V12.7739C193.543 9.26079 191.339 6.72146 186.905 6.72146Z" fill="#FFFFFE"/>
<path fill-rule="evenodd" clip-rule="evenodd" d="M205.321 12.5726C202.375 12.4012 200.087 12.1566 200.087 10.7858C200.087 9.31675 202.796 8.94935 204.742 8.94935C207.372 8.97391 209.291 9.70818 210.686 10.7121L212.29 8.85163C210.607 7.70083 207.845 6.72146 204.899 6.72146C200.06 6.72146 197.167 8.33737 197.167 10.9567C197.167 13.8211 200.902 14.6782 204.821 14.9479C208.213 15.1925 210.081 15.6085 210.081 16.9547C210.081 18.3015 208.029 18.938 205.373 18.938C202.296 18.938 199.955 18.0569 198.272 16.7101L196.615 18.3997C198.693 20.0888 201.77 21.1659 205.294 21.1659C210.37 21.1659 213 19.2077 213 16.7101C213 13.9925 209.739 12.8663 205.321 12.5726Z" fill="#FFFFFE"/>
</svg>
