<svg width="127" height="110" viewBox="0 0 127 110" fill="none" xmlns="http://www.w3.org/2000/svg">
<path fill-rule="evenodd" clip-rule="evenodd" d="M51.856 84.7327C49.0431 86.8722 45.8653 88.2786 42.2651 88.5636C36.9724 88.9827 29.841 85.9914 26.9641 80.6272C24.0146 75.1278 23.6805 69.6459 26.5835 64.1314C29.383 58.814 34.0759 56.1585 39.8056 55.3976C43.1179 55.7913 46.0827 56.4167 48.6891 58.1872C49.4484 58.7028 50.2733 59.1287 51.0119 59.6697C52.3533 60.6517 53.3736 61.9026 54.1599 63.3676C55.5645 65.9848 57.0117 68.6185 57.3316 71.5908C57.9026 76.8893 56.2229 81.4117 51.856 84.7327ZM79.8915 68.5838C79.7461 68.194 79.753 67.752 79.6508 67.343C79.1237 65.2389 78.605 63.1327 78.023 61.0433C77.9409 60.7482 77.5541 60.3688 77.2615 60.3234C74.7594 59.9369 72.2479 59.6079 69.7364 59.2832C67.8785 59.0429 67.8861 59.0543 67.3841 57.3175C66.9421 55.7888 66.2438 54.4375 64.8043 53.5424C64.5967 53.4137 64.4877 52.8336 64.5938 52.5604C65.6396 49.8653 66.6891 47.169 67.8563 44.5243C68.2217 43.6957 68.2209 43.3138 67.3511 42.8915C64.5418 41.5284 61.7544 40.1187 58.9957 38.6601C58.2698 38.2764 57.8503 38.3501 57.3014 38.9283C56.0433 40.2535 54.7172 41.5173 53.4013 42.7885C52.9076 43.2659 52.1853 43.6024 51.8858 44.167C51.3431 45.189 50.684 44.9655 49.8356 44.7327C47.7937 44.1724 45.8559 43.1078 43.6064 43.454C43.3774 43.4894 42.9547 43.1547 42.8351 42.8962C41.7165 40.4749 40.6278 38.0408 39.5729 35.5927C39.3257 35.0195 39.0371 34.915 38.4402 35.0566C35.8458 35.6735 33.2489 36.2878 30.6309 36.7931C29.8064 36.9522 29.645 37.283 29.6618 38.0114C29.7207 40.5768 29.7217 43.1429 29.7552 45.7086C29.7632 46.2994 29.6425 46.7135 29.0082 47.0242C26.9521 48.0308 24.9092 49.0732 22.9321 50.2196C22.2632 50.6076 21.8125 50.7475 21.0731 50.4042C18.6063 49.2581 16.1024 48.1885 13.5884 47.1461C13.2986 47.026 12.6589 47.1325 12.5174 47.3475C10.8733 49.8492 9.29673 52.3931 7.6951 54.9223C7.27052 55.5928 7.54533 55.9211 8.12804 56.406C10.3626 58.2655 12.5109 60.2262 14.6843 62.1564C15.1562 62.5755 15.3139 63.0683 14.8915 63.6186C13.424 65.5332 13.0253 67.7438 13.1372 70.0603C13.1809 70.965 12.9231 71.3426 11.9958 71.6226C9.23603 72.4558 6.52423 73.4431 4 74.2999C4.8608 77.6681 5.72196 80.8857 6.48061 84.1269C6.65182 84.8571 6.89392 85.0982 7.62894 85.0427C9.99504 84.8629 12.367 84.7567 14.7309 84.5557C15.503 84.4899 15.9995 84.6619 16.2994 85.3857C17.1839 87.5237 18.4696 89.3746 20.4635 90.7832C20.1203 91.7183 19.8022 92.6326 19.4514 93.5345C18.687 95.5016 17.9062 97.463 17.1308 99.4258C16.8745 100.075 17.0464 100.528 17.7015 100.848C18.8182 101.394 19.9647 101.906 21.0062 102.572C22.7645 103.695 24.4508 104.927 26.3473 106.238C28.2321 104.387 30.1634 102.583 31.9759 100.67C32.7981 99.8024 33.5772 99.6615 34.6928 99.9651C36.3053 100.403 37.9716 100.941 39.6089 100.921C41.3967 100.9 41.5635 101.045 42.2364 102.814C43.0299 104.901 43.9202 106.951 44.761 109C48.1333 108.384 51.4845 107.771 54.9117 107.143C54.8655 106.459 54.8575 105.845 54.7779 105.24C54.4944 103.085 54.1963 100.933 53.8837 98.7818C53.7404 97.7938 54.1501 97.3807 55.1323 97.0807C56.3366 96.7128 57.4643 96.0702 58.5828 95.4694C59.3018 95.0832 59.9659 94.5858 60.617 94.0898C61.4549 93.4519 62.3546 93.3625 63.3226 93.6843C65.788 94.5046 68.2627 95.3013 70.7077 96.1767C71.4729 96.451 71.8946 96.2779 72.2152 95.6049C72.5373 94.9302 72.8557 94.2518 73.2109 93.5938C74.3058 91.5656 75.417 89.5462 76.5083 87.5491C74.553 85.7304 72.6809 83.799 70.5896 82.1341C69.6953 81.4225 69.6615 80.8467 69.8655 79.942C70.3471 77.7997 70.8866 75.6602 71.1767 73.4903C71.3435 72.2445 71.8001 71.4803 73.0189 71.1975C75.0062 70.7358 76.9939 70.2767 78.9911 69.8611C79.7548 69.7024 80.2241 69.4739 79.8915 68.5838Z" fill="#E0E9EF"/>
<mask id="mask0_1_406" style="mask-type:luminance" maskUnits="userSpaceOnUse" x="0" y="33" width="79" height="77">
<path d="M0 33.0479H78.7898V109.886H0V33.0479Z" fill="white"/>
</mask>
<g mask="url(#mask0_1_406)">
<path fill-rule="evenodd" clip-rule="evenodd" d="M73.765 86.7459C71.7976 84.9274 69.9144 82.996 67.8103 81.331C66.9106 80.6193 66.8766 80.0436 67.0814 79.1385C67.566 76.996 68.1088 74.8565 68.401 72.6869C68.5685 71.4406 69.0283 70.6764 70.2542 70.3935C72.2534 69.9322 74.254 69.473 76.2633 69.0571C77.0318 68.8984 77.5039 68.6698 77.1693 67.7798C77.0222 67.39 77.0299 66.948 76.9268 66.5392C76.3961 64.4351 75.8749 62.3284 75.289 60.2389C75.2063 59.9442 74.8176 59.5644 74.5228 59.5194C72.0054 59.1328 69.4785 58.8034 66.9516 58.4787C65.0826 58.2384 65.0896 58.2502 64.5845 56.5133C64.1405 54.9842 63.4379 53.6328 61.9892 52.7377C61.7804 52.609 61.6706 52.0293 61.7774 51.7557C62.8297 49.0608 63.8852 46.3644 65.06 43.7192C65.4279 42.8906 65.4268 42.5087 64.552 42.0867C61.7255 40.7235 58.921 39.3138 56.1447 37.8548C55.4147 37.4711 54.993 37.5447 54.4403 38.123C53.1745 39.4483 51.8406 40.7121 50.5167 41.9837C50.0196 42.4608 49.2929 42.7973 48.9915 43.3619C48.4455 44.384 47.7827 44.1605 46.9291 43.9277C44.8747 43.3673 42.9246 42.3031 40.6614 42.6489C40.431 42.6843 40.0056 42.3499 39.8853 42.091C38.7603 39.67 37.6649 37.2357 36.6031 34.7872C36.3544 34.2143 36.064 34.1099 35.4635 34.2515C32.8536 34.868 30.2404 35.4828 27.6063 35.9881C26.7768 36.1472 26.6144 36.4776 26.6312 37.2064C26.6908 39.7715 26.6916 42.3377 26.7256 44.9039C26.7329 45.4943 26.6115 45.9088 25.9736 46.2192C23.9054 47.2259 21.8499 48.2683 19.8603 49.4152C19.1873 49.8032 18.7338 49.943 17.9899 49.5993C15.5083 48.4532 12.9884 47.3839 10.4593 46.3412C10.1678 46.221 9.52407 46.3279 9.38179 46.5429C7.72755 49.0443 6.14096 51.5887 4.52988 54.1177C4.10269 54.7882 4.37882 55.1165 4.96547 55.6014C7.21368 57.4613 9.37521 59.4221 11.5623 61.3525C12.0371 61.7712 12.1951 62.264 11.7708 62.8144C10.2943 64.7294 9.89273 66.9397 10.0057 69.2563C10.0496 70.1614 9.79032 70.5387 8.85695 70.8187C6.08025 71.6519 3.35219 72.6393 0.812121 73.4965C1.67783 76.8644 2.54463 80.0822 3.30794 83.3235C3.47983 84.0538 3.72415 84.2952 4.46368 84.2394C6.84392 84.0595 9.23074 83.9537 11.6092 83.7523C12.3856 83.6865 12.8852 83.8589 13.1866 84.5827C14.0768 86.7205 15.3708 88.5714 17.3762 89.9801C17.0316 90.9152 16.7112 91.8296 16.3587 92.7315C15.5891 94.6987 14.8039 96.6602 14.0234 98.6235C13.7656 99.2725 13.9386 99.7252 14.5976 100.045C15.7215 100.591 16.8744 101.103 17.9226 101.769C19.6917 102.892 21.3887 104.125 23.2968 105.436C25.1928 103.585 27.1359 101.781 28.9595 99.8676C29.7872 98.9997 30.5703 98.8587 31.6931 99.1624C33.3151 99.6011 34.9921 100.138 36.6394 100.119C38.4377 100.098 38.6059 100.242 39.2833 102.012C40.0813 104.098 40.9774 106.149 41.8234 108.198C45.216 107.581 48.5874 106.968 52.0359 106.341C51.9899 105.656 51.9811 105.042 51.9013 104.437C51.6161 102.283 51.3162 100.13 51.002 97.979C50.8572 96.991 51.2697 96.5783 52.2576 96.2779C53.47 95.9099 54.6042 95.2673 55.7292 94.6665C56.4534 94.2803 57.1212 93.7829 57.7759 93.2872C58.6196 92.6489 59.5245 92.5595 60.4988 92.8817C62.9793 93.7017 65.4689 94.4984 67.9288 95.3739C68.6987 95.6481 69.123 95.4754 69.4456 94.8021C69.7692 94.1272 70.09 93.4492 70.4473 92.7909C71.5486 90.7625 72.6674 88.7435 73.765 86.7459ZM52.371 98.1564C52.6475 99.7621 53.0004 101.673 53.2963 103.592C53.4397 104.52 53.5176 105.463 53.5475 106.401C53.5742 107.235 53.2396 107.73 52.2514 107.899C48.9846 108.461 45.7372 109.131 42.4857 109.775C41.0765 110.055 40.7642 109.861 40.284 108.536C39.4753 106.306 38.6286 104.089 37.7585 101.882C37.67 101.656 37.3317 101.425 37.0749 101.379C35.0945 101.022 33.1089 100.685 31.1159 100.404C30.7334 100.35 30.1844 100.438 29.9269 100.679C27.9889 102.494 26.0983 104.358 24.206 106.22C23.3275 107.084 23.0327 106.978 22.0393 106.297C19.8263 104.78 17.5151 103.4 15.2347 101.978C14.5102 101.526 13.6613 101.218 13.0538 100.654C12.7141 100.338 12.5363 99.5768 12.6618 99.1137C13.0077 97.8349 13.5158 96.5926 14.0282 95.3639C14.5665 94.0725 15.2099 92.8238 15.7453 91.5321C15.8455 91.2911 15.7629 90.8129 15.5767 90.6495C13.9587 89.2294 12.8223 87.5061 11.972 85.5661C11.8557 85.3011 11.4036 85.0165 11.1052 85.0147C9.34668 85.0043 7.5882 85.0844 5.82935 85.1137C4.8371 85.1302 3.83972 85.1581 2.85478 85.0694C2.60242 85.0461 2.244 84.6313 2.18109 84.3449C1.50776 81.273 0.904287 78.1869 0.237542 75.1143C-0.180865 73.1875 -0.225486 73.1693 1.62297 72.4115C3.76255 71.535 5.91091 70.6757 8.08268 69.8814C8.65214 69.6737 8.77905 69.3901 8.74357 68.8833C8.613 67.0367 8.93925 65.2554 9.64586 63.5493C9.91285 62.9034 10.3082 62.3084 10.6421 61.6958C8.51206 59.8176 6.30884 57.8987 4.13744 55.9469C3.51458 55.3872 3.39206 54.5894 3.71939 53.8752C4.584 51.9899 5.49397 50.1211 6.4811 48.2951C6.99021 47.3539 7.71182 46.5243 8.32005 45.6327C8.80977 44.9132 9.43373 44.6361 10.279 44.9933C12.7364 46.0318 15.1883 47.0836 17.6516 48.1085C18.4789 48.4525 19.2177 48.6027 20.1075 47.9508C21.6081 46.8508 23.2891 45.9896 24.8599 44.9772C25.116 44.8124 25.3314 44.3854 25.3339 44.0779C25.3526 41.7066 25.3065 39.3349 25.2963 36.9632C25.289 35.3183 25.4246 35.3483 27.0683 35.0754C29.6138 34.6524 32.1301 34.052 34.6464 33.4737C37.4103 32.8382 36.9821 32.5843 38.2658 35.1412C39.3473 37.2944 40.3037 39.5076 41.3739 41.8221C43.6429 41.3472 45.7851 42.1697 47.9817 42.8742C49.652 41.1269 51.3436 39.395 52.9902 37.6234C54.5647 35.9298 55.0917 35.8296 57.1991 36.8628C59.3347 37.9098 61.4977 38.9029 63.6369 39.9425C64.5571 40.3898 65.452 40.8869 66.3496 41.3783C67.0481 41.7606 67.2025 42.371 66.9135 43.0505C65.628 46.074 64.3164 49.0865 63.0766 51.9592C63.9002 52.8843 64.7824 53.646 65.3591 54.5872C65.9235 55.5088 66.1762 56.6127 66.588 57.6959C69.1237 57.8833 71.8222 58.1233 74.5264 58.262C75.5176 58.3124 76.2385 58.6128 76.4908 59.5584C77.268 62.4693 78.0452 65.382 78.7229 68.3162C78.9716 69.3947 78.5331 69.9529 77.2998 70.2844C75.9268 70.6531 74.5085 70.8573 73.118 71.1677C72.2457 71.3626 71.3906 71.6301 70.523 71.8476C69.9978 71.9792 69.7539 72.2516 69.7846 72.8145C69.917 75.2502 69.3004 77.5657 68.6036 79.8755C68.5235 80.1408 68.8106 80.6404 69.0765 80.8568C70.9323 82.3716 72.8239 83.8446 74.7119 85.3211C75.7535 86.1358 75.7678 86.4987 75.1526 87.617C73.7397 90.185 72.374 92.7791 71.0409 95.3878C70.2085 97.0167 68.9723 97.4326 67.2467 96.7911C64.7677 95.8699 62.2397 95.072 59.7169 94.2706C59.3921 94.1673 58.9364 94.2799 58.6024 94.4262C58.123 94.6358 57.7042 94.9758 57.2518 95.2466C55.7135 96.1681 54.1715 97.0836 52.371 98.1564Z" fill="#02374E"/>
</g>
<mask id="mask1_1_406" style="mask-type:luminance" maskUnits="userSpaceOnUse" x="63" y="0" width="64" height="63">
<path d="M63.321 0.240723H126.821V62.9062H63.321V0.240723Z" fill="white"/>
</mask>
<g mask="url(#mask1_1_406)">
<path fill-rule="evenodd" clip-rule="evenodd" d="M70.0704 48.2868C71.8832 50.1527 73.6083 51.8605 75.2423 53.649C75.7792 54.2362 76.1474 54.2034 76.7271 53.8081C78.1713 52.8235 79.674 51.9192 81.0923 50.9001C81.7564 50.4227 82.2007 50.5401 82.8652 50.9069C84.1244 51.6028 85.441 52.2364 86.8036 52.6939C87.4604 52.9146 87.8203 53.1403 87.9282 53.7905C87.9922 54.175 88.1377 54.5476 88.1952 54.9324C88.4431 56.6125 88.6783 58.2945 88.9061 59.9775C88.9961 60.6406 89.3325 60.9423 90.0358 60.8944C90.9903 60.8289 91.9521 60.7497 92.9048 60.7972C94.5491 60.8793 96.1882 61.0535 97.989 61.2025C98.5566 59.1545 99.1611 57.1561 99.6468 55.1304C99.8527 54.2736 100.294 53.8758 101.118 53.6418C102.482 53.2545 103.895 52.9085 105.132 52.2598C106.039 51.7853 106.586 51.8177 107.328 52.4311C108.792 53.6411 110.321 54.774 111.79 55.9131C113.505 54.4738 115.157 53.0647 116.834 51.6845C117.946 50.7697 118.221 51.0171 117.094 49.599C116.072 48.3127 115.004 47.0556 114.08 45.7038C113.784 45.2704 113.601 44.2703 113.847 44.0511C115.294 42.7605 115.803 40.963 116.752 39.4089C117.089 38.8552 117.745 38.2954 118.361 38.1366C120.346 37.6243 122.375 37.2705 124.398 36.9159C125.047 36.8021 125.338 36.5584 125.304 35.9007C125.2 33.8782 125.105 31.8546 125.041 29.8311C125.026 29.371 124.935 29.1395 124.418 29.0347C122.633 28.6726 120.879 28.1092 119.079 27.8971C117.95 27.7643 117.684 27.1545 117.404 26.329C116.775 24.48 116.136 22.6339 115.465 20.7994C115.211 20.1046 115.304 19.5027 115.802 18.9907C116.605 18.1663 117.433 17.365 118.274 16.5787C118.821 16.0675 119.41 15.6003 120.127 14.9872C118.564 13.4111 117.102 11.9088 115.595 10.4508C115.393 10.255 114.909 10.1362 114.653 10.2323C112.64 10.9843 110.634 11.7576 108.665 12.6119C107.916 12.937 107.438 12.8142 106.936 12.2407C106.111 11.3001 105.082 10.5667 103.828 10.4483C102.982 10.3684 102.743 9.95619 102.638 9.31359C102.299 7.25187 101.91 5.19303 101.698 3.11763C101.609 2.23707 101.335 2.01963 100.499 2.07111C98.0804 2.21943 95.6568 2.28531 93.2395 2.44155C92.9348 2.46135 92.4766 2.77491 92.3906 3.04527C91.7795 4.97342 91.145 6.90519 90.7354 8.87979C90.5507 9.76899 90.177 10.0372 89.3837 10.215C87.7834 10.5736 86.0883 10.6661 84.703 11.7223C84.5464 11.8415 84.075 11.7252 83.8549 11.5722C82.2037 10.4217 80.5667 9.25058 78.9528 8.04998C78.4562 7.68026 78.0985 7.58487 77.6044 8.06763C76.568 9.07887 75.48 10.039 74.4055 11.0121C72.5547 12.6893 72.559 12.6835 73.8515 14.7964C74.6045 16.0279 75.3864 17.2476 76.0403 18.5296C76.233 18.9061 76.1968 19.5678 75.9832 19.9433C75.0956 21.5014 74.061 22.9781 73.1669 24.5329C72.8721 25.0449 72.6051 25.2972 71.9896 25.3483C69.878 25.5247 67.7696 25.7526 65.6675 26.0194C65.3589 26.059 64.8575 26.4003 64.8417 26.6285C64.6903 28.8087 64.6227 30.9946 64.5353 33.1791C64.5122 33.7601 64.8366 33.894 65.3896 33.993C67.5703 34.3843 69.7346 34.8642 71.9077 35.2984C72.6991 35.4564 73.1204 36.0353 73.0418 36.6991C72.8118 38.646 73.5147 40.2775 74.5087 41.868C74.8854 42.4714 74.8385 43.0045 74.2549 43.6072C72.7946 45.1156 71.448 46.7313 70.0704 48.2868ZM84.3705 10.0944C85.9716 9.56126 87.3478 9.02703 88.769 8.66162C89.4693 8.48127 89.6895 8.18427 89.8244 7.52259C90.1898 5.73051 90.663 3.95967 91.0949 2.18091C91.2939 1.36011 91.7923 0.850345 92.6711 0.787705C95.2534 0.602305 97.8354 0.402145 100.42 0.259945C102.426 0.149425 102.689 0.470185 102.898 2.42067C103.11 4.40067 103.432 6.36987 103.754 8.33619C103.799 8.61051 104.094 9.02919 104.321 9.06159C106.015 9.3035 107.215 10.2719 108.232 11.5049C110.23 10.5498 112.171 9.56666 114.169 8.70951C114.614 8.51871 115.459 8.56155 115.772 8.85603C117.588 10.5646 119.359 12.3289 121.022 14.1815C121.875 15.1308 121.693 15.8821 120.678 16.8351C119.573 17.8715 118.438 18.8759 117.299 19.876C116.768 20.3418 116.783 20.7306 117.094 21.3891C117.748 22.7733 118.248 24.2345 118.71 25.6954C118.879 26.2285 119.109 26.4312 119.635 26.5043C121.406 26.7513 123.17 27.0385 124.938 27.3046C126.057 27.4731 126.469 27.9281 126.514 29.056C126.613 31.5015 126.709 33.9466 126.817 36.3913C126.878 37.7651 126.211 38.4905 124.878 38.7087C122.817 39.0453 120.764 39.4402 118.73 39.9049C118.332 39.996 117.932 40.459 117.709 40.8481C116.899 42.2568 116.163 43.7069 115.34 45.2542C116.371 46.557 117.551 48.0435 118.722 49.5371C118.903 49.7682 119.057 50.0242 119.195 50.2837C119.644 51.1261 119.633 51.7677 118.746 52.4653C116.829 53.9719 115.029 55.6218 113.199 57.2332C112.253 58.0666 111.977 58.0641 111.015 57.2541C109.606 56.0661 108.17 54.9069 106.72 53.7667C106.54 53.6249 106.169 53.5763 105.947 53.653C104.483 54.1581 103.022 54.6765 101.593 55.2676C101.241 55.4134 100.857 55.7986 100.749 56.1514C100.166 58.054 99.6406 59.9749 99.1483 61.9027C98.9292 62.7606 98.5745 62.9874 97.6072 62.8823C95.4802 62.6519 93.3269 62.6613 91.1838 62.5745C91.0854 62.5709 90.9856 62.5918 90.8861 62.5986C88.8132 62.7376 88.344 62.451 87.9648 60.4519C87.655 58.8172 87.4838 57.1547 87.3142 55.498C87.2512 54.8845 87.007 54.6682 86.4163 54.4399C85.1023 53.9313 83.834 53.2865 82.6048 52.5967C82.1338 52.3321 81.8281 52.2727 81.3684 52.5485C79.6967 53.5493 77.9848 54.4853 76.3288 55.5102C75.6983 55.9008 75.3835 55.7637 74.9303 55.2463C73.1563 53.221 71.3291 51.2399 69.5148 49.2484C68.986 48.6677 68.8657 48.1021 69.3945 47.4379C70.601 45.9216 71.7987 44.3967 72.9467 42.8379C73.1409 42.5743 73.1972 42.0869 73.1029 41.764C72.6567 40.2387 72.0917 38.7461 71.6685 37.215C71.5376 36.7423 71.414 36.4957 70.9108 36.3935C69.1572 36.0375 67.4208 35.5932 65.6606 35.2743C64.645 35.0907 64.0789 34.5618 63.7903 33.6276C63.1159 31.446 63.3266 29.2209 63.4634 27.0069C63.6067 24.6888 63.6382 24.6604 65.9791 24.3691C67.6508 24.1614 69.3375 24.0736 71.0113 23.8828C71.7062 23.8036 72.2588 23.5584 72.5814 22.7736C73.0999 21.5122 73.8511 20.3454 74.441 19.1092C74.5738 18.8302 74.5701 18.364 74.4202 18.0987C73.5969 16.6432 72.6951 15.2309 71.8463 13.7887C70.9711 12.3012 71.0651 12.1889 72.359 11.0851C74.0128 9.6743 75.6062 8.19039 77.1678 6.68019C77.8217 6.04767 78.3443 5.88891 79.1339 6.46167C80.9222 7.75875 82.7625 8.98527 84.3705 10.0944Z" fill="#02374E"/>
</g>
<path fill-rule="evenodd" clip-rule="evenodd" d="M38.9436 83.9453C41.9995 83.9435 45.863 82.5888 48.6692 80.4455C52.6251 77.4244 54.3153 73.3936 53.6328 68.5992C53.3663 66.7288 52.4412 64.9213 51.6488 63.1561C51.0963 61.9261 50.4349 60.6603 49.5174 59.683C46.4334 56.3975 42.6403 54.4361 37.9538 54.4197C37.6578 54.4187 37.3523 54.4365 37.0666 54.5061C34.7337 55.0765 32.58 55.9998 30.5869 57.3488C25.869 60.5412 23.2632 66.5685 24.4821 72.0158C26.1927 79.6601 31.414 83.4545 38.9436 83.9453ZM37.2954 53C40.621 53.3913 43.598 54.0128 46.2148 55.7723C46.9772 56.2848 47.805 56.7081 48.5466 57.2458C49.8937 58.2216 50.9182 59.4648 51.7076 60.9211C53.1178 63.5222 54.5704 66.1392 54.8919 69.0931C55.4649 74.3592 53.778 78.8534 49.3941 82.1542C46.5699 84.2801 43.3794 85.6778 39.7651 85.9614C34.4508 86.3779 27.2913 83.4048 24.4029 78.074C21.4416 72.6082 21.1058 67.1602 24.0205 61.6799C26.8311 56.3957 31.5432 53.7563 37.2954 53Z" fill="#02374E"/>
<path fill-rule="evenodd" clip-rule="evenodd" d="M95.3286 43.6197C100.573 43.4217 103.894 41.3406 106.385 36.2363C108.156 32.6084 108.049 28.8715 105.424 25.8176C102.913 22.8974 99.837 20.6595 95.6409 20.4452C92.2672 20.2728 89.3717 21.037 87.181 23.6312C84.8423 26.4011 83.5824 29.563 84.0017 33.3763C84.6644 39.3993 90.5217 43.8128 95.3286 43.6197ZM95.2378 19.007C99.8748 18.8439 103.44 21.5334 106.214 25.0186C109.675 29.3665 109.744 34.2238 107.343 38.7178C104.314 44.3871 98.981 46.8256 92.9786 45.7534C89.1091 45.0615 86.0939 42.6924 84.1833 39.3288C81.6568 34.8819 81.134 30.1814 83.6198 25.3689C85.9005 20.9543 89.4859 18.9162 95.2378 19.007Z" fill="#02374E"/>
</svg>
