<svg width="78" height="50" viewBox="0 0 78 50" fill="none" xmlns="http://www.w3.org/2000/svg">
<path fill-rule="evenodd" clip-rule="evenodd" d="M7.5103 16.7005C5.42111 16.7005 3.91061 15.594 3.91061 13.4885C3.91061 11.3613 5.42111 10.2769 7.5103 10.2769C9.59998 10.2769 11.11 11.3613 11.11 13.4885C11.11 15.594 9.59998 16.7005 7.5103 16.7005ZM7.5103 6.99951C2.89642 6.99951 0 9.45177 0 13.4885C0 17.5035 2.89642 19.9995 7.5103 19.9995C12.1036 19.9995 15 17.5035 15 13.4885C15 9.45177 12.1036 6.99951 7.5103 6.99951Z" fill="#1A2F3C"/>
<path fill-rule="evenodd" clip-rule="evenodd" d="M21 13.9995H57V9.99951H21V13.9995Z" fill="#1A2F3C"/>
<path fill-rule="evenodd" clip-rule="evenodd" d="M72.4719 6.84848C70.2657 6.84848 68.4378 7.74132 67.3902 9.32227V-0.000488281H63V19.9995H67.3902V12.4842C68.3263 10.9266 69.5747 10.2162 71.0228 10.2162C72.6948 10.2162 73.6088 11.178 73.6088 12.8285V19.9995H78V12.5303C78 9.20768 76.0606 6.84848 72.4719 6.84848Z" fill="#1A2F3C"/>
<path fill-rule="evenodd" clip-rule="evenodd" d="M39.5005 46.0197C35.9017 46.0197 33.5978 43.8688 32.7641 40.9995L30 42.2949C30.856 46.5527 34.5636 49.9995 39.5005 49.9995C44.4364 49.9995 48.145 46.5527 49 42.2949L46.2359 40.9995C45.4022 43.8688 43.1207 46.0197 39.5005 46.0197Z" fill="#1A2F3C"/>
</svg>
